<svg width="599" height="345" viewBox="0 0 599 345" fill="none" xmlns="http://www.w3.org/2000/svg">
<g filter="url(#filter0_d_2084_118)">
<rect x="4" width="590.15" height="336.25" rx="10" fill="white" shape-rendering="crispEdges"/>
<path d="M54.3252 24H34.3252C29.9069 24 26.3252 27.5817 26.3252 32V52C26.3252 56.4183 29.9069 60 34.3252 60H54.3252C58.7435 60 62.3252 56.4183 62.3252 52V32C62.3252 27.5817 58.7435 24 54.3252 24Z" fill="#E2F5FD"/>
<path d="M43.5063 34.3448C43.542 34.1536 43.6435 33.9811 43.7931 33.8568C43.9427 33.7326 44.131 33.6646 44.3255 33.6646C44.5199 33.6646 44.7083 33.7326 44.8579 33.8568C45.0075 33.9811 45.1089 34.1536 45.1446 34.3448L46.0205 38.9765C46.0827 39.3058 46.2427 39.6086 46.4797 39.8456C46.7166 40.0825 47.0195 40.2427 47.3488 40.3049L51.9805 41.1806C52.1716 41.2163 52.3443 41.3178 52.4685 41.4674C52.5928 41.617 52.6608 41.8054 52.6608 41.9999C52.6608 42.1943 52.5928 42.3826 52.4685 42.5322C52.3443 42.6818 52.1716 42.7833 51.9805 42.819L47.3488 43.6949C47.0195 43.7571 46.7166 43.917 46.4797 44.154C46.2427 44.3909 46.0827 44.6939 46.0205 45.0232L45.1446 49.6549C45.1089 49.846 45.0075 50.0186 44.8579 50.1428C44.7083 50.2671 44.5199 50.3352 44.3255 50.3352C44.131 50.3352 43.9427 50.2671 43.7931 50.1428C43.6435 50.0186 43.542 49.846 43.5063 49.6549L42.6305 45.0232C42.5683 44.6939 42.4082 44.3909 42.1713 44.154C41.9343 43.917 41.6314 43.7571 41.3021 43.6949L36.6705 42.819C36.4793 42.7833 36.3067 42.6818 36.1824 42.5322C36.0582 42.3826 35.9902 42.1943 35.9902 41.9999C35.9902 41.8054 36.0582 41.617 36.1824 41.4674C36.3067 41.3178 36.4793 41.2163 36.6705 41.1806L41.3021 40.3049C41.6314 40.2427 41.9343 40.0825 42.1713 39.8456C42.4082 39.6086 42.5683 39.3058 42.6305 38.9765L43.5063 34.3448Z" stroke="#0369A0" stroke-width="1.66667" stroke-linecap="round" stroke-linejoin="round"/>
<path d="M50.9922 33.6665V36.9998" stroke="#0369A0" stroke-width="1.66667" stroke-linecap="round" stroke-linejoin="round"/>
<path d="M52.6585 35.3335H49.3252" stroke="#0369A0" stroke-width="1.66667" stroke-linecap="round" stroke-linejoin="round"/>
<path d="M37.6589 50.3333C38.5794 50.3333 39.3256 49.5871 39.3256 48.6667C39.3256 47.7462 38.5794 47 37.6589 47C36.7384 47 35.9922 47.7462 35.9922 48.6667C35.9922 49.5871 36.7384 50.3333 37.6589 50.3333Z" stroke="#0369A0" stroke-width="1.66667" stroke-linecap="round" stroke-linejoin="round"/>
<path d="M80.8692 38L79.8292 34.976H75.5252L74.5012 38H72.3252L76.5172 26.528H78.8532L83.0452 38H80.8692ZM78.3092 30.272C78.2665 30.1227 78.2025 29.92 78.1172 29.664C78.0319 29.408 77.9465 29.1467 77.8612 28.88C77.7865 28.6027 77.7279 28.3733 77.6852 28.192C77.6319 28.4053 77.5625 28.6507 77.4772 28.928C77.4025 29.2053 77.3279 29.4667 77.2532 29.712C77.1892 29.9573 77.1359 30.144 77.0932 30.272L76.0852 33.216H79.3012L78.3092 30.272ZM88.4196 38H83.6196V36.832L84.9956 36.32V28.272L83.6196 27.744V26.576H88.4196V27.744L87.0436 28.272V36.32L88.4196 36.832V38ZM99.4897 28.144C98.967 28.144 98.503 28.24 98.0977 28.432C97.6924 28.624 97.3457 28.9013 97.0577 29.264C96.7804 29.6267 96.567 30.064 96.4177 30.576C96.279 31.088 96.2097 31.664 96.2097 32.304C96.2097 33.168 96.327 33.9093 96.5617 34.528C96.7964 35.136 97.1537 35.6053 97.6337 35.936C98.1244 36.2667 98.7377 36.432 99.4737 36.432C99.9644 36.432 100.434 36.384 100.882 36.288C101.34 36.1813 101.82 36.0427 102.322 35.872V37.616C101.852 37.808 101.378 37.9467 100.898 38.032C100.428 38.1173 99.8844 38.16 99.2657 38.16C98.0924 38.16 97.1217 37.92 96.3537 37.44C95.5857 36.9493 95.015 36.2667 94.6417 35.392C94.2684 34.5067 94.0817 33.472 94.0817 32.288C94.0817 31.424 94.199 30.6347 94.4337 29.92C94.679 29.2053 95.0257 28.5867 95.4737 28.064C95.9324 27.5413 96.4977 27.136 97.1697 26.848C97.8417 26.56 98.615 26.416 99.4897 26.416C100.066 26.416 100.631 26.4853 101.186 26.624C101.751 26.752 102.279 26.9333 102.77 27.168L102.066 28.848C101.66 28.6667 101.239 28.5067 100.802 28.368C100.375 28.2187 99.9377 28.144 99.4897 28.144ZM106.606 38H104.59V25.84H106.606V38ZM112.64 29.168C113.76 29.168 114.608 29.4133 115.184 29.904C115.77 30.384 116.064 31.1413 116.064 32.176V38H114.64L114.24 36.8H114.176C113.93 37.1093 113.674 37.3707 113.408 37.584C113.152 37.7867 112.853 37.9307 112.512 38.016C112.181 38.112 111.776 38.16 111.296 38.16C110.784 38.16 110.32 38.064 109.904 37.872C109.498 37.68 109.178 37.3867 108.943 36.992C108.709 36.5867 108.592 36.08 108.592 35.472C108.592 34.576 108.917 33.904 109.568 33.456C110.229 32.9973 111.226 32.7467 112.56 32.704L114.064 32.656V32.224C114.064 31.6693 113.93 31.2747 113.664 31.04C113.397 30.8053 113.024 30.688 112.544 30.688C112.106 30.688 111.685 30.752 111.28 30.88C110.874 31.008 110.48 31.1573 110.096 31.328L109.456 29.92C109.882 29.696 110.368 29.5147 110.912 29.376C111.466 29.2373 112.042 29.168 112.64 29.168ZM113.008 33.936C112.122 33.968 111.509 34.1227 111.168 34.4C110.826 34.6667 110.656 35.0293 110.656 35.488C110.656 35.8933 110.778 36.1867 111.024 36.368C111.269 36.5493 111.584 36.64 111.968 36.64C112.554 36.64 113.05 36.4747 113.456 36.144C113.861 35.8027 114.064 35.3013 114.064 34.64V33.904L113.008 33.936ZM124.494 35.488C124.494 36.064 124.355 36.5547 124.078 36.96C123.8 37.3547 123.39 37.6533 122.846 37.856C122.312 38.0587 121.656 38.16 120.878 38.16C120.27 38.16 119.747 38.1173 119.31 38.032C118.872 37.9467 118.456 37.8133 118.062 37.632V35.92C118.488 36.1227 118.963 36.2933 119.486 36.432C120.008 36.5707 120.494 36.64 120.942 36.64C121.496 36.64 121.896 36.5547 122.142 36.384C122.387 36.2133 122.51 35.984 122.51 35.696C122.51 35.5253 122.462 35.3707 122.366 35.232C122.27 35.0933 122.083 34.9493 121.806 34.8C121.528 34.64 121.107 34.4427 120.542 34.208C119.987 33.984 119.523 33.76 119.15 33.536C118.787 33.312 118.51 33.0453 118.318 32.736C118.136 32.416 118.046 32.016 118.046 31.536C118.046 30.7573 118.355 30.1707 118.974 29.776C119.592 29.3707 120.408 29.168 121.422 29.168C121.955 29.168 122.456 29.2213 122.926 29.328C123.406 29.424 123.886 29.584 124.366 29.808L123.726 31.296C123.459 31.1787 123.192 31.0773 122.926 30.992C122.67 30.896 122.408 30.8213 122.142 30.768C121.886 30.7147 121.624 30.688 121.358 30.688C120.92 30.688 120.59 30.7573 120.366 30.896C120.142 31.024 120.03 31.2053 120.03 31.44C120.03 31.6213 120.083 31.7813 120.19 31.92C120.307 32.048 120.504 32.1813 120.782 32.32C121.07 32.448 121.475 32.6187 121.998 32.832C122.52 33.0347 122.963 33.248 123.326 33.472C123.699 33.6853 123.987 33.952 124.19 34.272C124.392 34.592 124.494 34.9973 124.494 35.488ZM132.338 35.488C132.338 36.064 132.199 36.5547 131.922 36.96C131.644 37.3547 131.234 37.6533 130.69 37.856C130.156 38.0587 129.5 38.16 128.722 38.16C128.114 38.16 127.591 38.1173 127.154 38.032C126.716 37.9467 126.3 37.8133 125.906 37.632V35.92C126.332 36.1227 126.807 36.2933 127.33 36.432C127.852 36.5707 128.338 36.64 128.786 36.64C129.34 36.64 129.74 36.5547 129.986 36.384C130.231 36.2133 130.354 35.984 130.354 35.696C130.354 35.5253 130.306 35.3707 130.21 35.232C130.114 35.0933 129.927 34.9493 129.65 34.8C129.372 34.64 128.951 34.4427 128.386 34.208C127.831 33.984 127.367 33.76 126.994 33.536C126.631 33.312 126.354 33.0453 126.162 32.736C125.98 32.416 125.89 32.016 125.89 31.536C125.89 30.7573 126.199 30.1707 126.818 29.776C127.436 29.3707 128.252 29.168 129.266 29.168C129.799 29.168 130.3 29.2213 130.77 29.328C131.25 29.424 131.73 29.584 132.21 29.808L131.57 31.296C131.303 31.1787 131.036 31.0773 130.77 30.992C130.514 30.896 130.252 30.8213 129.986 30.768C129.73 30.7147 129.468 30.688 129.202 30.688C128.764 30.688 128.434 30.7573 128.21 30.896C127.986 31.024 127.874 31.2053 127.874 31.44C127.874 31.6213 127.927 31.7813 128.034 31.92C128.151 32.048 128.348 32.1813 128.626 32.32C128.914 32.448 129.319 32.6187 129.841 32.832C130.364 33.0347 130.807 33.248 131.17 33.472C131.543 33.6853 131.831 33.952 132.034 34.272C132.236 34.592 132.338 34.9973 132.338 35.488ZM136.293 29.328V38H134.277V29.328H136.293ZM135.285 25.984C135.584 25.984 135.845 26.064 136.069 26.224C136.293 26.3733 136.405 26.6453 136.405 27.04C136.405 27.424 136.293 27.7013 136.069 27.872C135.845 28.032 135.584 28.112 135.285 28.112C134.976 28.112 134.709 28.032 134.485 27.872C134.272 27.7013 134.165 27.424 134.165 27.04C134.165 26.6453 134.272 26.3733 134.485 26.224C134.709 26.064 134.976 25.984 135.285 25.984ZM143.367 30.848H141.271V38H139.255V30.848H137.863V29.888L139.255 29.312V28.72C139.255 27.9733 139.372 27.3867 139.607 26.96C139.842 26.5333 140.183 26.2293 140.631 26.048C141.079 25.856 141.607 25.76 142.215 25.76C142.642 25.76 143.026 25.7973 143.367 25.872C143.708 25.936 143.991 26.0107 144.215 26.096L143.703 27.6C143.522 27.5467 143.319 27.4987 143.095 27.456C142.882 27.4027 142.647 27.376 142.391 27.376C142.007 27.376 141.724 27.4987 141.543 27.744C141.362 27.9893 141.271 28.3307 141.271 28.768V29.328H143.367V30.848ZM146.823 29.328V38H144.807V29.328H146.823ZM145.815 25.984C146.114 25.984 146.375 26.064 146.599 26.224C146.823 26.3733 146.935 26.6453 146.935 27.04C146.935 27.424 146.823 27.7013 146.599 27.872C146.375 28.032 146.114 28.112 145.815 28.112C145.506 28.112 145.239 28.032 145.015 27.872C144.802 27.7013 144.695 27.424 144.695 27.04C144.695 26.6453 144.802 26.3733 145.015 26.224C145.239 26.064 145.506 25.984 145.815 25.984ZM152.906 38.16C152.085 38.16 151.37 38.0053 150.762 37.696C150.165 37.376 149.701 36.8907 149.37 36.24C149.05 35.5787 148.89 34.736 148.89 33.712C148.89 32.6453 149.066 31.7813 149.418 31.12C149.781 30.448 150.277 29.9573 150.906 29.648C151.536 29.328 152.256 29.168 153.066 29.168C153.61 29.168 154.096 29.2213 154.522 29.328C154.949 29.4347 155.312 29.5627 155.61 29.712L155.018 31.296C154.688 31.168 154.357 31.0613 154.026 30.976C153.696 30.88 153.376 30.832 153.066 30.832C152.586 30.832 152.186 30.9387 151.866 31.152C151.557 31.3653 151.328 31.6853 151.178 32.112C151.029 32.528 150.954 33.056 150.954 33.696C150.954 34.3147 151.029 34.832 151.178 35.248C151.338 35.664 151.573 35.9787 151.882 36.192C152.192 36.3947 152.576 36.496 153.034 36.496C153.525 36.496 153.957 36.4373 154.33 36.32C154.704 36.2027 155.056 36.0427 155.386 35.84V37.584C155.056 37.7867 154.698 37.9307 154.314 38.016C153.941 38.112 153.472 38.16 152.906 38.16ZM160.874 29.168C161.994 29.168 162.842 29.4133 163.418 29.904C164.005 30.384 164.298 31.1413 164.298 32.176V38H162.874L162.474 36.8H162.41C162.165 37.1093 161.909 37.3707 161.642 37.584C161.386 37.7867 161.087 37.9307 160.746 38.016C160.415 38.112 160.01 38.16 159.53 38.16C159.018 38.16 158.554 38.064 158.138 37.872C157.733 37.68 157.413 37.3867 157.178 36.992C156.943 36.5867 156.826 36.08 156.826 35.472C156.826 34.576 157.151 33.904 157.802 33.456C158.463 32.9973 159.461 32.7467 160.794 32.704L162.298 32.656V32.224C162.298 31.6693 162.165 31.2747 161.898 31.04C161.631 30.8053 161.258 30.688 160.778 30.688C160.341 30.688 159.919 30.752 159.514 30.88C159.109 31.008 158.714 31.1573 158.33 31.328L157.69 29.92C158.117 29.696 158.602 29.5147 159.146 29.376C159.701 29.2373 160.277 29.168 160.874 29.168ZM161.242 33.936C160.357 33.968 159.743 34.1227 159.402 34.4C159.061 34.6667 158.89 35.0293 158.89 35.488C158.89 35.8933 159.013 36.1867 159.258 36.368C159.503 36.5493 159.818 36.64 160.202 36.64C160.789 36.64 161.285 36.4747 161.69 36.144C162.095 35.8027 162.298 35.3013 162.298 34.64V33.904L161.242 33.936ZM170.184 36.544C170.44 36.544 170.685 36.5227 170.92 36.48C171.155 36.4267 171.373 36.368 171.576 36.304V37.808C171.363 37.904 171.085 37.984 170.744 38.048C170.403 38.1227 170.045 38.16 169.672 38.16C169.181 38.16 168.733 38.08 168.328 37.92C167.933 37.7493 167.613 37.4613 167.368 37.056C167.133 36.6507 167.016 36.0853 167.016 35.36V30.848H165.848V29.968L167.128 29.264L167.768 27.424H169.032V29.328H171.496V30.848H169.032V35.344C169.032 35.7493 169.139 36.0533 169.352 36.256C169.565 36.448 169.843 36.544 170.184 36.544ZM175.34 29.328V38H173.324V29.328H175.34ZM174.332 25.984C174.631 25.984 174.892 26.064 175.116 26.224C175.34 26.3733 175.452 26.6453 175.452 27.04C175.452 27.424 175.34 27.7013 175.116 27.872C174.892 28.032 174.631 28.112 174.332 28.112C174.023 28.112 173.756 28.032 173.532 27.872C173.319 27.7013 173.212 27.424 173.212 27.04C173.212 26.6453 173.319 26.3733 173.532 26.224C173.756 26.064 174.023 25.984 174.332 25.984ZM185.662 33.648C185.662 34.3733 185.566 35.0133 185.374 35.568C185.182 36.1227 184.905 36.5973 184.542 36.992C184.19 37.376 183.753 37.6693 183.23 37.872C182.718 38.064 182.147 38.16 181.518 38.16C180.921 38.16 180.371 38.064 179.87 37.872C179.369 37.6693 178.931 37.376 178.558 36.992C178.195 36.5973 177.913 36.1227 177.71 35.568C177.507 35.0133 177.406 34.3733 177.406 33.648C177.406 32.688 177.571 31.8773 177.902 31.216C178.233 30.544 178.707 30.0373 179.326 29.696C179.955 29.344 180.697 29.168 181.55 29.168C182.361 29.168 183.07 29.344 183.678 29.696C184.297 30.0373 184.782 30.544 185.134 31.216C185.486 31.8773 185.662 32.688 185.662 33.648ZM179.47 33.648C179.47 34.256 179.539 34.7787 179.678 35.216C179.827 35.6427 180.051 35.968 180.35 36.192C180.659 36.416 181.054 36.528 181.534 36.528C182.025 36.528 182.419 36.416 182.718 36.192C183.027 35.968 183.251 35.6427 183.39 35.216C183.529 34.7787 183.598 34.256 183.598 33.648C183.598 33.0293 183.523 32.512 183.374 32.096C183.235 31.6693 183.011 31.3493 182.702 31.136C182.403 30.912 182.014 30.8 181.534 30.8C180.809 30.8 180.281 31.0453 179.95 31.536C179.63 32.0267 179.47 32.7307 179.47 33.648ZM192.386 29.168C193.357 29.168 194.114 29.4187 194.658 29.92C195.213 30.4213 195.49 31.232 195.49 32.352V38H193.474V32.752C193.474 32.1013 193.346 31.616 193.09 31.296C192.834 30.9653 192.429 30.8 191.874 30.8C191.063 30.8 190.509 31.056 190.21 31.568C189.911 32.0693 189.762 32.8 189.762 33.76V38H187.746V29.328H189.298L189.586 30.464H189.698C189.89 30.1653 190.125 29.92 190.402 29.728C190.679 29.536 190.989 29.3973 191.33 29.312C191.671 29.216 192.023 29.168 192.386 29.168Z" fill="#1A1A1A"/>
<path d="M77.1616 49.2601C76.7056 49.2601 76.2936 49.3401 75.9256 49.5001C75.5576 49.6521 75.2456 49.8801 74.9896 50.1841C74.7336 50.4801 74.5376 50.8441 74.4016 51.2761C74.2656 51.7001 74.1976 52.1801 74.1976 52.7161C74.1976 53.4201 74.3056 54.0321 74.5216 54.5521C74.7456 55.0721 75.0736 55.4721 75.5056 55.7521C75.9456 56.0321 76.4936 56.1721 77.1496 56.1721C77.5256 56.1721 77.8816 56.1401 78.2176 56.0761C78.5536 56.0121 78.8816 55.9321 79.2016 55.8361V56.7721C78.8816 56.8921 78.5496 56.9801 78.2056 57.0361C77.8696 57.0921 77.4656 57.1201 76.9936 57.1201C76.1216 57.1201 75.3936 56.9401 74.8096 56.5801C74.2256 56.2201 73.7856 55.7081 73.4896 55.0441C73.2016 54.3801 73.0576 53.6001 73.0576 52.7041C73.0576 52.0561 73.1456 51.4641 73.3216 50.9281C73.5056 50.3921 73.7696 49.9281 74.1136 49.5361C74.4656 49.1441 74.8976 48.8441 75.4096 48.6361C75.9216 48.4201 76.5096 48.3121 77.1736 48.3121C77.6136 48.3121 78.0376 48.3561 78.4456 48.4441C78.8536 48.5321 79.2176 48.6561 79.5376 48.8161L79.1056 49.7281C78.8416 49.6081 78.5456 49.5001 78.2176 49.4041C77.8976 49.3081 77.5456 49.2601 77.1616 49.2601ZM86.5196 53.7721C86.5196 54.3081 86.4476 54.7841 86.3036 55.2001C86.1676 55.6081 85.9676 55.9561 85.7036 56.2441C85.4476 56.5321 85.1316 56.7521 84.7556 56.9041C84.3876 57.0481 83.9756 57.1201 83.5196 57.1201C83.0956 57.1201 82.7036 57.0481 82.3436 56.9041C81.9836 56.7521 81.6716 56.5321 81.4076 56.2441C81.1436 55.9561 80.9356 55.6081 80.7836 55.2001C80.6396 54.7841 80.5676 54.3081 80.5676 53.7721C80.5676 53.0601 80.6876 52.4601 80.9276 51.9721C81.1676 51.4761 81.5116 51.1001 81.9596 50.8441C82.4076 50.5801 82.9396 50.4481 83.5556 50.4481C84.1396 50.4481 84.6516 50.5801 85.0916 50.8441C85.5396 51.1001 85.8876 51.4761 86.1356 51.9721C86.3916 52.4601 86.5196 53.0601 86.5196 53.7721ZM81.6596 53.7721C81.6596 54.2761 81.7236 54.7161 81.8516 55.0921C81.9876 55.4601 82.1956 55.7441 82.4756 55.9441C82.7556 56.1441 83.1116 56.2441 83.5436 56.2441C83.9756 56.2441 84.3316 56.1441 84.6116 55.9441C84.8916 55.7441 85.0956 55.4601 85.2236 55.0921C85.3596 54.7161 85.4276 54.2761 85.4276 53.7721C85.4276 53.2601 85.3596 52.8241 85.2236 52.4641C85.0876 52.1041 84.8796 51.8281 84.5996 51.6361C84.3276 51.4361 83.9716 51.3361 83.5316 51.3361C82.8756 51.3361 82.3996 51.5521 82.1036 51.9841C81.8076 52.4161 81.6596 53.0121 81.6596 53.7721ZM91.2893 50.4481C92.0573 50.4481 92.6373 50.6361 93.0293 51.0121C93.4213 51.3801 93.6173 51.9801 93.6173 52.8121V57.0001H92.5733V52.8841C92.5733 52.3641 92.4573 51.9761 92.2253 51.7201C91.9933 51.4641 91.6293 51.3361 91.1333 51.3361C90.4213 51.3361 89.9293 51.5361 89.6573 51.9361C89.3853 52.3361 89.2493 52.9121 89.2493 53.6641V57.0001H88.1933V50.5681H89.0453L89.2013 51.4441H89.2613C89.4053 51.2201 89.5813 51.0361 89.7893 50.8921C90.0053 50.7401 90.2413 50.6281 90.4973 50.5561C90.7533 50.4841 91.0173 50.4481 91.2893 50.4481ZM98.5752 51.3841H96.9552V57.0001H95.8992V51.3841H94.7712V50.8921L95.8992 50.5321V50.1601C95.8992 49.6081 95.9792 49.1601 96.1392 48.8161C96.3072 48.4721 96.5472 48.2201 96.8592 48.0601C97.1712 47.9001 97.5472 47.8201 97.9872 47.8201C98.2432 47.8201 98.4752 47.8441 98.6832 47.8921C98.8992 47.9321 99.0832 47.9801 99.2352 48.0361L98.9592 48.8641C98.8312 48.8241 98.6832 48.7841 98.5152 48.7441C98.3472 48.7041 98.1752 48.6841 97.9992 48.6841C97.6472 48.6841 97.3832 48.8041 97.2072 49.0441C97.0392 49.2761 96.9552 49.6441 96.9552 50.1481V50.5681H98.5752V51.3841ZM100.795 50.5681V57.0001H99.7392V50.5681H100.795ZM100.279 48.1561C100.439 48.1561 100.579 48.2121 100.699 48.3241C100.827 48.4281 100.891 48.5961 100.891 48.8281C100.891 49.0521 100.827 49.2201 100.699 49.3321C100.579 49.4441 100.439 49.5001 100.279 49.5001C100.103 49.5001 99.9552 49.4441 99.8352 49.3321C99.7152 49.2201 99.6552 49.0521 99.6552 48.8281C99.6552 48.5961 99.7152 48.4281 99.8352 48.3241C99.9552 48.2121 100.103 48.1561 100.279 48.1561ZM105.11 57.1201C104.31 57.1201 103.67 56.8441 103.19 56.2921C102.71 55.7321 102.47 54.9001 102.47 53.7961C102.47 52.6921 102.71 51.8601 103.19 51.3001C103.678 50.7321 104.322 50.4481 105.122 50.4481C105.458 50.4481 105.75 50.4921 105.998 50.5801C106.246 50.6601 106.462 50.7721 106.646 50.9161C106.83 51.0601 106.986 51.2201 107.114 51.3961H107.186C107.178 51.2921 107.162 51.1401 107.138 50.9401C107.122 50.7321 107.114 50.5681 107.114 50.4481V47.8801H108.17V57.0001H107.318L107.162 56.1361H107.114C106.986 56.3201 106.83 56.4881 106.646 56.6401C106.462 56.7841 106.242 56.9001 105.986 56.9881C105.738 57.0761 105.446 57.1201 105.11 57.1201ZM105.278 56.2441C105.958 56.2441 106.434 56.0601 106.706 55.6921C106.986 55.3161 107.126 54.7521 107.126 54.0001V53.8081C107.126 53.0081 106.994 52.3961 106.73 51.9721C106.466 51.5401 105.978 51.3241 105.266 51.3241C104.698 51.3241 104.27 51.5521 103.982 52.0081C103.702 52.4561 103.562 53.0601 103.562 53.8201C103.562 54.5881 103.702 55.1841 103.982 55.6081C104.27 56.0321 104.702 56.2441 105.278 56.2441ZM112.697 50.4481C113.249 50.4481 113.721 50.5681 114.113 50.8081C114.513 51.0481 114.817 51.3881 115.025 51.8281C115.241 52.2601 115.349 52.7681 115.349 53.3521V53.9881H110.945C110.961 54.7161 111.145 55.2721 111.497 55.6561C111.857 56.0321 112.357 56.2201 112.997 56.2201C113.405 56.2201 113.765 56.1841 114.077 56.1121C114.397 56.0321 114.725 55.9201 115.061 55.7761V56.7001C114.733 56.8441 114.409 56.9481 114.089 57.0121C113.769 57.0841 113.389 57.1201 112.949 57.1201C112.341 57.1201 111.801 56.9961 111.329 56.7481C110.865 56.5001 110.501 56.1321 110.237 55.6441C109.981 55.1481 109.853 54.5441 109.853 53.8321C109.853 53.1281 109.969 52.5241 110.201 52.0201C110.441 51.5161 110.773 51.1281 111.197 50.8561C111.629 50.5841 112.129 50.4481 112.697 50.4481ZM112.685 51.3121C112.181 51.3121 111.781 51.4761 111.485 51.8041C111.197 52.1241 111.025 52.5721 110.969 53.1481H114.245C114.245 52.7801 114.189 52.4601 114.077 52.1881C113.965 51.9161 113.793 51.7041 113.561 51.5521C113.337 51.3921 113.045 51.3121 112.685 51.3121ZM120.083 50.4481C120.851 50.4481 121.431 50.6361 121.823 51.0121C122.215 51.3801 122.411 51.9801 122.411 52.8121V57.0001H121.367V52.8841C121.367 52.3641 121.251 51.9761 121.019 51.7201C120.787 51.4641 120.423 51.3361 119.927 51.3361C119.215 51.3361 118.723 51.5361 118.451 51.9361C118.179 52.3361 118.043 52.9121 118.043 53.6641V57.0001H116.987V50.5681H117.839L117.995 51.4441H118.055C118.199 51.2201 118.375 51.0361 118.583 50.8921C118.799 50.7401 119.035 50.6281 119.291 50.5561C119.547 50.4841 119.811 50.4481 120.083 50.4481ZM126.985 57.1201C126.417 57.1201 125.909 57.0041 125.461 56.7721C125.021 56.5401 124.673 56.1801 124.417 55.6921C124.169 55.2041 124.045 54.5801 124.045 53.8201C124.045 53.0281 124.177 52.3841 124.441 51.8881C124.705 51.3921 125.061 51.0281 125.509 50.7961C125.965 50.5641 126.481 50.4481 127.057 50.4481C127.385 50.4481 127.701 50.4841 128.005 50.5561C128.309 50.6201 128.557 50.7001 128.749 50.7961L128.425 51.6721C128.233 51.6001 128.009 51.5321 127.753 51.4681C127.497 51.4041 127.257 51.3721 127.033 51.3721C126.601 51.3721 126.245 51.4641 125.965 51.6481C125.685 51.8321 125.477 52.1041 125.341 52.4641C125.205 52.8241 125.137 53.2721 125.137 53.8081C125.137 54.3201 125.205 54.7561 125.341 55.1161C125.477 55.4761 125.681 55.7481 125.953 55.9321C126.225 56.1161 126.565 56.2081 126.973 56.2081C127.325 56.2081 127.633 56.1721 127.897 56.1001C128.169 56.0281 128.417 55.9401 128.641 55.8361V56.7721C128.425 56.8841 128.185 56.9681 127.921 57.0241C127.665 57.0881 127.353 57.1201 126.985 57.1201ZM132.654 50.4481C133.206 50.4481 133.678 50.5681 134.07 50.8081C134.47 51.0481 134.774 51.3881 134.982 51.8281C135.198 52.2601 135.306 52.7681 135.306 53.3521V53.9881H130.902C130.918 54.7161 131.102 55.2721 131.454 55.6561C131.814 56.0321 132.314 56.2201 132.954 56.2201C133.362 56.2201 133.722 56.1841 134.034 56.1121C134.354 56.0321 134.682 55.9201 135.018 55.7761V56.7001C134.69 56.8441 134.366 56.9481 134.046 57.0121C133.726 57.0841 133.346 57.1201 132.906 57.1201C132.298 57.1201 131.758 56.9961 131.286 56.7481C130.822 56.5001 130.458 56.1321 130.194 55.6441C129.938 55.1481 129.81 54.5441 129.81 53.8321C129.81 53.1281 129.926 52.5241 130.158 52.0201C130.398 51.5161 130.73 51.1281 131.154 50.8561C131.586 50.5841 132.086 50.4481 132.654 50.4481ZM132.642 51.3121C132.138 51.3121 131.738 51.4761 131.442 51.8041C131.154 52.1241 130.982 52.5721 130.926 53.1481H134.202C134.202 52.7801 134.146 52.4601 134.034 52.1881C133.922 51.9161 133.75 51.7041 133.518 51.5521C133.294 51.3921 133.002 51.3121 132.642 51.3121ZM142.341 57.1201C141.541 57.1201 140.901 56.8441 140.421 56.2921C139.941 55.7321 139.701 54.9001 139.701 53.7961C139.701 52.6921 139.941 51.8601 140.421 51.3001C140.909 50.7321 141.553 50.4481 142.353 50.4481C142.689 50.4481 142.981 50.4921 143.229 50.5801C143.477 50.6601 143.693 50.7721 143.877 50.9161C144.061 51.0601 144.217 51.2201 144.345 51.3961H144.417C144.409 51.2921 144.393 51.1401 144.369 50.9401C144.353 50.7321 144.345 50.5681 144.345 50.4481V47.8801H145.401V57.0001H144.549L144.393 56.1361H144.345C144.217 56.3201 144.061 56.4881 143.877 56.6401C143.693 56.7841 143.473 56.9001 143.217 56.9881C142.969 57.0761 142.677 57.1201 142.341 57.1201ZM142.509 56.2441C143.189 56.2441 143.665 56.0601 143.937 55.6921C144.217 55.3161 144.357 54.7521 144.357 54.0001V53.8081C144.357 53.0081 144.225 52.3961 143.961 51.9721C143.697 51.5401 143.209 51.3241 142.497 51.3241C141.929 51.3241 141.501 51.5521 141.213 52.0081C140.933 52.4561 140.793 53.0601 140.793 53.8201C140.793 54.5881 140.933 55.1841 141.213 55.6081C141.501 56.0321 141.933 56.2441 142.509 56.2441ZM148.5 50.5681V57.0001H147.444V50.5681H148.5ZM147.984 48.1561C148.144 48.1561 148.284 48.2121 148.404 48.3241C148.532 48.4281 148.596 48.5961 148.596 48.8281C148.596 49.0521 148.532 49.2201 148.404 49.3321C148.284 49.4441 148.144 49.5001 147.984 49.5001C147.808 49.5001 147.66 49.4441 147.54 49.3321C147.42 49.2201 147.36 49.0521 147.36 48.8281C147.36 48.5961 147.42 48.4281 147.54 48.3241C147.66 48.2121 147.808 48.1561 147.984 48.1561ZM154.725 55.2241C154.725 55.6401 154.621 55.9881 154.413 56.2681C154.205 56.5481 153.909 56.7601 153.525 56.9041C153.141 57.0481 152.685 57.1201 152.157 57.1201C151.709 57.1201 151.321 57.0841 150.993 57.0121C150.673 56.9401 150.389 56.8401 150.141 56.7121V55.7521C150.397 55.8801 150.705 56.0001 151.065 56.1121C151.433 56.2161 151.805 56.2681 152.181 56.2681C152.717 56.2681 153.105 56.1841 153.345 56.0161C153.585 55.8401 153.705 55.6081 153.705 55.3201C153.705 55.1601 153.661 55.0161 153.573 54.8881C153.485 54.7601 153.325 54.6321 153.093 54.5041C152.869 54.3761 152.545 54.2321 152.121 54.0721C151.705 53.9121 151.349 53.7521 151.053 53.5921C150.757 53.4321 150.529 53.2401 150.369 53.0161C150.209 52.7921 150.129 52.5041 150.129 52.1521C150.129 51.6081 150.349 51.1881 150.789 50.8921C151.237 50.5961 151.821 50.4481 152.541 50.4481C152.933 50.4481 153.297 50.4881 153.633 50.5681C153.977 50.6401 154.297 50.7441 154.593 50.8801L154.233 51.7201C154.057 51.6401 153.869 51.5721 153.669 51.5161C153.477 51.4521 153.281 51.4041 153.081 51.3721C152.881 51.3321 152.677 51.3121 152.469 51.3121C152.037 51.3121 151.705 51.3841 151.473 51.5281C151.249 51.6641 151.137 51.8521 151.137 52.0921C151.137 52.2681 151.189 52.4201 151.293 52.5481C151.397 52.6681 151.569 52.7881 151.809 52.9081C152.057 53.0201 152.385 53.1561 152.793 53.3161C153.201 53.4681 153.549 53.6241 153.837 53.7841C154.125 53.9441 154.345 54.1401 154.497 54.3721C154.649 54.5961 154.725 54.8801 154.725 55.2241ZM158.428 56.2561C158.588 56.2561 158.752 56.2441 158.92 56.2201C159.088 56.1881 159.224 56.1561 159.328 56.1241V56.9281C159.216 56.9841 159.056 57.0281 158.848 57.0601C158.64 57.1001 158.44 57.1201 158.248 57.1201C157.912 57.1201 157.6 57.0641 157.312 56.9521C157.032 56.8321 156.804 56.6281 156.628 56.3401C156.452 56.0521 156.364 55.6481 156.364 55.1281V51.3841H155.452V50.8801L156.376 50.4601L156.796 49.0921H157.42V50.5681H159.28V51.3841H157.42V55.1041C157.42 55.4961 157.512 55.7881 157.696 55.9801C157.888 56.1641 158.132 56.2561 158.428 56.2561ZM163.616 50.4481C163.736 50.4481 163.864 50.4561 164 50.4721C164.144 50.4801 164.268 50.4961 164.372 50.5201L164.24 51.4921C164.136 51.4681 164.02 51.4481 163.892 51.4321C163.772 51.4161 163.656 51.4081 163.544 51.4081C163.296 51.4081 163.06 51.4601 162.836 51.5641C162.612 51.6681 162.412 51.8161 162.236 52.0081C162.06 52.1921 161.92 52.4161 161.816 52.6801C161.72 52.9441 161.672 53.2401 161.672 53.5681V57.0001H160.616V50.5681H161.48L161.6 51.7441H161.648C161.784 51.5041 161.948 51.2881 162.14 51.0961C162.332 50.8961 162.552 50.7401 162.8 50.6281C163.048 50.5081 163.32 50.4481 163.616 50.4481ZM166.629 50.5681V57.0001H165.573V50.5681H166.629ZM166.113 48.1561C166.273 48.1561 166.413 48.2121 166.533 48.3241C166.661 48.4281 166.725 48.5961 166.725 48.8281C166.725 49.0521 166.661 49.2201 166.533 49.3321C166.413 49.4441 166.273 49.5001 166.113 49.5001C165.937 49.5001 165.789 49.4441 165.669 49.3321C165.549 49.2201 165.489 49.0521 165.489 48.8281C165.489 48.5961 165.549 48.4281 165.669 48.3241C165.789 48.2121 165.937 48.1561 166.113 48.1561ZM169.722 50.1001C169.722 50.3721 169.714 50.6281 169.698 50.8681C169.69 51.1001 169.678 51.2841 169.662 51.4201H169.722C169.906 51.1481 170.158 50.9201 170.478 50.7361C170.798 50.5521 171.21 50.4601 171.714 50.4601C172.514 50.4601 173.154 50.7401 173.634 51.3001C174.122 51.8521 174.366 52.6801 174.366 53.7841C174.366 54.5201 174.254 55.1361 174.03 55.6321C173.814 56.1281 173.506 56.5001 173.106 56.7481C172.706 56.9961 172.242 57.1201 171.714 57.1201C171.21 57.1201 170.798 57.0281 170.478 56.8441C170.158 56.6601 169.906 56.4401 169.722 56.1841H169.638L169.422 57.0001H168.666V47.8801H169.722V50.1001ZM171.534 51.3361C171.078 51.3361 170.718 51.4241 170.454 51.6001C170.19 51.7681 170.002 52.0321 169.89 52.3921C169.778 52.7441 169.722 53.1961 169.722 53.7481V53.7961C169.722 54.5881 169.85 55.1961 170.106 55.6201C170.37 56.0361 170.854 56.2441 171.558 56.2441C172.134 56.2441 172.562 56.0321 172.842 55.6081C173.13 55.1841 173.274 54.5721 173.274 53.7721C173.274 52.9641 173.13 52.3561 172.842 51.9481C172.562 51.5401 172.126 51.3361 171.534 51.3361ZM181.425 50.5681V57.0001H180.561L180.405 56.1481H180.357C180.221 56.3721 180.045 56.5561 179.829 56.7001C179.613 56.8441 179.377 56.9481 179.121 57.0121C178.865 57.0841 178.597 57.1201 178.317 57.1201C177.805 57.1201 177.373 57.0401 177.021 56.8801C176.677 56.7121 176.417 56.4561 176.241 56.1121C176.065 55.7681 175.977 55.3241 175.977 54.7801V50.5681H177.045V54.7081C177.045 55.2201 177.161 55.6041 177.393 55.8601C177.625 56.1161 177.985 56.2441 178.473 56.2441C178.953 56.2441 179.329 56.1561 179.601 55.9801C179.881 55.7961 180.077 55.5321 180.189 55.1881C180.309 54.8361 180.369 54.4121 180.369 53.9161V50.5681H181.425ZM185.615 56.2561C185.775 56.2561 185.939 56.2441 186.107 56.2201C186.275 56.1881 186.411 56.1561 186.515 56.1241V56.9281C186.403 56.9841 186.243 57.0281 186.035 57.0601C185.827 57.1001 185.627 57.1201 185.435 57.1201C185.099 57.1201 184.787 57.0641 184.499 56.9521C184.219 56.8321 183.991 56.6281 183.815 56.3401C183.639 56.0521 183.551 55.6481 183.551 55.1281V51.3841H182.639V50.8801L183.563 50.4601L183.983 49.0921H184.607V50.5681H186.467V51.3841H184.607V55.1041C184.607 55.4961 184.699 55.7881 184.883 55.9801C185.075 56.1641 185.319 56.2561 185.615 56.2561ZM188.859 50.5681V57.0001H187.803V50.5681H188.859ZM188.343 48.1561C188.503 48.1561 188.643 48.2121 188.763 48.3241C188.891 48.4281 188.955 48.5961 188.955 48.8281C188.955 49.0521 188.891 49.2201 188.763 49.3321C188.643 49.4441 188.503 49.5001 188.343 49.5001C188.167 49.5001 188.019 49.4441 187.899 49.3321C187.779 49.2201 187.719 49.0521 187.719 48.8281C187.719 48.5961 187.779 48.4281 187.899 48.3241C188.019 48.2121 188.167 48.1561 188.343 48.1561ZM196.489 53.7721C196.489 54.3081 196.417 54.7841 196.273 55.2001C196.137 55.6081 195.937 55.9561 195.673 56.2441C195.417 56.5321 195.101 56.7521 194.725 56.9041C194.357 57.0481 193.945 57.1201 193.489 57.1201C193.065 57.1201 192.673 57.0481 192.313 56.9041C191.953 56.7521 191.641 56.5321 191.377 56.2441C191.113 55.9561 190.905 55.6081 190.753 55.2001C190.609 54.7841 190.537 54.3081 190.537 53.7721C190.537 53.0601 190.657 52.4601 190.897 51.9721C191.137 51.4761 191.481 51.1001 191.929 50.8441C192.377 50.5801 192.909 50.4481 193.525 50.4481C194.109 50.4481 194.621 50.5801 195.061 50.8441C195.509 51.1001 195.857 51.4761 196.105 51.9721C196.361 52.4601 196.489 53.0601 196.489 53.7721ZM191.629 53.7721C191.629 54.2761 191.693 54.7161 191.821 55.0921C191.957 55.4601 192.165 55.7441 192.445 55.9441C192.725 56.1441 193.081 56.2441 193.513 56.2441C193.945 56.2441 194.301 56.1441 194.581 55.9441C194.861 55.7441 195.065 55.4601 195.193 55.0921C195.329 54.7161 195.397 54.2761 195.397 53.7721C195.397 53.2601 195.329 52.8241 195.193 52.4641C195.057 52.1041 194.849 51.8281 194.569 51.6361C194.297 51.4361 193.941 51.3361 193.501 51.3361C192.845 51.3361 192.369 51.5521 192.073 51.9841C191.777 52.4161 191.629 53.0121 191.629 53.7721ZM201.258 50.4481C202.026 50.4481 202.606 50.6361 202.998 51.0121C203.39 51.3801 203.586 51.9801 203.586 52.8121V57.0001H202.542V52.8841C202.542 52.3641 202.426 51.9761 202.194 51.7201C201.962 51.4641 201.598 51.3361 201.102 51.3361C200.39 51.3361 199.898 51.5361 199.626 51.9361C199.354 52.3361 199.218 52.9121 199.218 53.6641V57.0001H198.162V50.5681H199.014L199.17 51.4441H199.23C199.374 51.2201 199.55 51.0361 199.758 50.8921C199.974 50.7401 200.21 50.6281 200.466 50.5561C200.722 50.4841 200.986 50.4481 201.258 50.4481Z" fill="#64748B"/>
<path d="M548.499 29.5H531.499C524.595 29.5 518.999 35.0964 518.999 42C518.999 48.9036 524.595 54.5 531.499 54.5H548.499C555.403 54.5 560.999 48.9036 560.999 42C560.999 35.0964 555.403 29.5 548.499 29.5Z" stroke="#E2E8F0"/>
<path d="M534.39 47.0001H532.878V41.6601C532.878 41.4841 532.878 41.3041 532.878 41.1201C532.886 40.9361 532.894 40.7521 532.902 40.5681C532.91 40.3761 532.918 40.2001 532.926 40.0401C532.846 40.1201 532.746 40.2161 532.626 40.3281C532.506 40.4321 532.382 40.5401 532.254 40.6521L531.294 41.4201L530.538 40.4841L533.13 38.4321H534.39V47.0001ZM541.257 47.0001H539.745V41.6601C539.745 41.4841 539.745 41.3041 539.745 41.1201C539.753 40.9361 539.761 40.7521 539.769 40.5681C539.777 40.3761 539.785 40.2001 539.793 40.0401C539.713 40.1201 539.613 40.2161 539.493 40.3281C539.373 40.4321 539.249 40.5401 539.121 40.6521L538.161 41.4201L537.405 40.4841L539.997 38.4321H541.257V47.0001ZM544.873 47.0001L548.209 39.7401H543.829V38.4321H549.829V39.4521L546.493 47.0001H544.873Z" fill="#1A1A1A"/>
<mask id="mask0_2084_118" style="mask-type:luminance" maskUnits="userSpaceOnUse" x="20" y="275" width="559" height="38">
<path d="M20 275.25H578.15V312.25H20V275.25Z" fill="white"/>
</mask>
<g mask="url(#mask0_2084_118)">
<path d="M20 275.25V276.25H578.15V275.25V274.25H20V275.25Z" fill="#E2E8F0"/>
</g>
<path d="M29.8454 307.5H28.5494V300.048H25.9814V298.932H32.4134V300.048H29.8454V307.5ZM38.4394 304.26C38.4394 304.796 38.3674 305.272 38.2234 305.688C38.0794 306.104 37.8754 306.456 37.6114 306.744C37.3474 307.032 37.0274 307.252 36.6514 307.404C36.2754 307.548 35.8514 307.62 35.3794 307.62C34.9474 307.62 34.5474 307.548 34.1794 307.404C33.8114 307.252 33.4914 307.032 33.2194 306.744C32.9554 306.456 32.7474 306.104 32.5954 305.688C32.4434 305.272 32.3674 304.792 32.3674 304.248C32.3674 303.536 32.4874 302.932 32.7274 302.436C32.9754 301.94 33.3274 301.564 33.7834 301.308C34.2474 301.044 34.7914 300.912 35.4154 300.912C36.0074 300.912 36.5274 301.044 36.9754 301.308C37.4314 301.564 37.7874 301.94 38.0434 302.436C38.3074 302.932 38.4394 303.54 38.4394 304.26ZM33.6754 304.26C33.6754 304.74 33.7354 305.156 33.8554 305.508C33.9754 305.852 34.1634 306.116 34.4194 306.3C34.6754 306.484 35.0034 306.576 35.4034 306.576C35.8034 306.576 36.1314 306.484 36.3874 306.3C36.6434 306.116 36.8314 305.852 36.9514 305.508C37.0714 305.156 37.1314 304.74 37.1314 304.26C37.1314 303.764 37.0674 303.348 36.9394 303.012C36.8194 302.676 36.6314 302.42 36.3754 302.244C36.1274 302.06 35.7994 301.968 35.3914 301.968C34.7914 301.968 34.3554 302.168 34.0834 302.568C33.8114 302.968 33.6754 303.532 33.6754 304.26ZM42.3799 306.588C42.5479 306.588 42.7199 306.572 42.8959 306.54C43.0719 306.508 43.2239 306.472 43.3519 306.432V307.392C43.2159 307.456 43.0319 307.508 42.7999 307.548C42.5679 307.596 42.3359 307.62 42.1039 307.62C41.7519 307.62 41.4279 307.56 41.1319 307.44C40.8439 307.32 40.6119 307.112 40.4359 306.816C40.2599 306.52 40.1719 306.108 40.1719 305.58V302.004H39.2719V301.428L40.2199 300.948L40.6639 299.58H41.4439V301.032H43.2919V302.004H41.4439V305.556C41.4439 305.908 41.5279 306.168 41.6959 306.336C41.8719 306.504 42.0999 306.588 42.3799 306.588ZM47.1536 300.912C47.9696 300.912 48.5776 301.092 48.9776 301.452C49.3776 301.804 49.5776 302.36 49.5776 303.12V307.5H48.6776L48.4256 306.6H48.3776C48.1936 306.832 48.0016 307.024 47.8016 307.176C47.6096 307.328 47.3856 307.44 47.1296 307.512C46.8816 307.584 46.5776 307.62 46.2176 307.62C45.8336 307.62 45.4856 307.552 45.1736 307.416C44.8696 307.272 44.6296 307.056 44.4536 306.768C44.2776 306.472 44.1896 306.104 44.1896 305.664C44.1896 305.008 44.4376 304.508 44.9336 304.164C45.4376 303.82 46.2016 303.632 47.2256 303.6L48.3296 303.564V303.204C48.3296 302.724 48.2216 302.388 48.0056 302.196C47.7896 302.004 47.4856 301.908 47.0936 301.908C46.7576 301.908 46.4376 301.956 46.1336 302.052C45.8296 302.148 45.5416 302.264 45.2696 302.4L44.8616 301.476C45.1656 301.316 45.5136 301.184 45.9056 301.08C46.3056 300.968 46.7216 300.912 47.1536 300.912ZM47.4536 304.416C46.7176 304.448 46.2056 304.572 45.9176 304.788C45.6376 304.996 45.4976 305.292 45.4976 305.676C45.4976 306.012 45.5976 306.256 45.7976 306.408C46.0056 306.56 46.2656 306.636 46.5776 306.636C47.0816 306.636 47.4976 306.496 47.8256 306.216C48.1536 305.936 48.3176 305.516 48.3176 304.956V304.392L47.4536 304.416ZM52.8082 307.5H51.5362V298.38H52.8082V307.5ZM61.727 299.928C61.303 299.928 60.923 300.004 60.587 300.156C60.251 300.3 59.963 300.516 59.723 300.804C59.491 301.092 59.311 301.44 59.183 301.848C59.063 302.256 59.003 302.716 59.003 303.228C59.003 303.9 59.103 304.484 59.303 304.98C59.503 305.468 59.803 305.844 60.203 306.108C60.603 306.372 61.107 306.504 61.715 306.504C62.083 306.504 62.435 306.472 62.771 306.408C63.115 306.336 63.463 306.244 63.815 306.132V307.248C63.479 307.376 63.135 307.468 62.783 307.524C62.431 307.588 62.023 307.62 61.559 307.62C60.687 307.62 59.959 307.44 59.375 307.08C58.799 306.72 58.367 306.208 58.079 305.544C57.791 304.88 57.647 304.104 57.647 303.216C57.647 302.568 57.735 301.976 57.911 301.44C58.095 300.896 58.359 300.428 58.703 300.036C59.047 299.644 59.471 299.344 59.975 299.136C60.487 298.92 61.075 298.812 61.739 298.812C62.171 298.812 62.595 298.86 63.011 298.956C63.427 299.044 63.803 299.172 64.139 299.34L63.659 300.42C63.379 300.292 63.075 300.18 62.747 300.084C62.427 299.98 62.087 299.928 61.727 299.928ZM66.7887 307.5H65.5167V298.38H66.7887V307.5ZM71.2943 300.912C72.1103 300.912 72.7182 301.092 73.1182 301.452C73.5182 301.804 73.7182 302.36 73.7182 303.12V307.5H72.8182L72.5662 306.6H72.5182C72.3342 306.832 72.1422 307.024 71.9422 307.176C71.7502 307.328 71.5262 307.44 71.2702 307.512C71.0222 307.584 70.7182 307.62 70.3582 307.62C69.9742 307.62 69.6262 307.552 69.3142 307.416C69.0102 307.272 68.7702 307.056 68.5942 306.768C68.4182 306.472 68.3302 306.104 68.3302 305.664C68.3302 305.008 68.5782 304.508 69.0742 304.164C69.5782 303.82 70.3422 303.632 71.3662 303.6L72.4702 303.564V303.204C72.4702 302.724 72.3622 302.388 72.1462 302.196C71.9302 302.004 71.6262 301.908 71.2342 301.908C70.8982 301.908 70.5782 301.956 70.2742 302.052C69.9702 302.148 69.6822 302.264 69.4102 302.4L69.0023 301.476C69.3063 301.316 69.6542 301.184 70.0462 301.08C70.4462 300.968 70.8623 300.912 71.2943 300.912ZM71.5942 304.416C70.8582 304.448 70.3463 304.572 70.0583 304.788C69.7783 304.996 69.6382 305.292 69.6382 305.676C69.6382 306.012 69.7382 306.256 69.9382 306.408C70.1462 306.56 70.4062 306.636 70.7182 306.636C71.2222 306.636 71.6382 306.496 71.9662 306.216C72.2942 305.936 72.4582 305.516 72.4582 304.956V304.392L71.5942 304.416ZM79.9729 305.676C79.9729 306.1 79.8689 306.456 79.6609 306.744C79.4529 307.032 79.1529 307.252 78.7609 307.404C78.3689 307.548 77.8969 307.62 77.3449 307.62C76.8889 307.62 76.4969 307.584 76.1689 307.512C75.8489 307.448 75.5529 307.352 75.2809 307.224V306.108C75.5689 306.244 75.9009 306.368 76.2769 306.48C76.6529 306.584 77.0209 306.636 77.3809 306.636C77.8609 306.636 78.2049 306.56 78.4129 306.408C78.6289 306.256 78.7369 306.052 78.7369 305.796C78.7369 305.652 78.6969 305.524 78.6169 305.412C78.5369 305.292 78.3849 305.172 78.1609 305.052C77.9449 304.924 77.625 304.78 77.201 304.62C76.793 304.452 76.4449 304.288 76.1569 304.128C75.8689 303.96 75.6489 303.764 75.4969 303.54C75.3449 303.308 75.2689 303.012 75.2689 302.652C75.2689 302.092 75.4929 301.664 75.9409 301.368C76.3969 301.064 76.9969 300.912 77.7409 300.912C78.1329 300.912 78.5009 300.952 78.8449 301.032C79.1969 301.104 79.5369 301.216 79.8649 301.368L79.4449 302.34C79.2609 302.252 79.0689 302.18 78.8689 302.124C78.6769 302.06 78.4809 302.008 78.2809 301.968C78.0889 301.928 77.8889 301.908 77.6809 301.908C77.2969 301.908 77.0049 301.968 76.8049 302.088C76.6049 302.208 76.5049 302.376 76.5049 302.592C76.5049 302.744 76.5489 302.876 76.6369 302.988C76.7329 303.1 76.8969 303.212 77.1289 303.324C77.3609 303.436 77.677 303.572 78.077 303.732C78.477 303.884 78.8169 304.04 79.0969 304.2C79.3849 304.36 79.6009 304.556 79.7449 304.788C79.8969 305.02 79.9729 305.316 79.9729 305.676ZM85.7854 305.676C85.7854 306.1 85.6814 306.456 85.4734 306.744C85.2654 307.032 84.9654 307.252 84.5734 307.404C84.1814 307.548 83.7094 307.62 83.1574 307.62C82.7014 307.62 82.3094 307.584 81.9814 307.512C81.6614 307.448 81.3654 307.352 81.0934 307.224V306.108C81.3814 306.244 81.7134 306.368 82.0894 306.48C82.4654 306.584 82.8334 306.636 83.1934 306.636C83.6734 306.636 84.0174 306.56 84.2254 306.408C84.4414 306.256 84.5494 306.052 84.5494 305.796C84.5494 305.652 84.5094 305.524 84.4294 305.412C84.3494 305.292 84.1974 305.172 83.9734 305.052C83.7574 304.924 83.4375 304.78 83.0135 304.62C82.6055 304.452 82.2574 304.288 81.9694 304.128C81.6814 303.96 81.4614 303.764 81.3094 303.54C81.1574 303.308 81.0814 303.012 81.0814 302.652C81.0814 302.092 81.3054 301.664 81.7534 301.368C82.2094 301.064 82.8094 300.912 83.5534 300.912C83.9454 300.912 84.3134 300.952 84.6574 301.032C85.0094 301.104 85.3494 301.216 85.6774 301.368L85.2574 302.34C85.0734 302.252 84.8814 302.18 84.6814 302.124C84.4894 302.06 84.2934 302.008 84.0934 301.968C83.9014 301.928 83.7014 301.908 83.4934 301.908C83.1094 301.908 82.8174 301.968 82.6174 302.088C82.4174 302.208 82.3174 302.376 82.3174 302.592C82.3174 302.744 82.3614 302.876 82.4494 302.988C82.5454 303.1 82.7094 303.212 82.9414 303.324C83.1734 303.436 83.4895 303.572 83.8895 303.732C84.2895 303.884 84.6294 304.04 84.9094 304.2C85.1974 304.36 85.4134 304.556 85.5574 304.788C85.7094 305.02 85.7854 305.316 85.7854 305.676ZM88.5739 301.032V307.5H87.3019V301.032H88.5739ZM87.9499 298.572C88.1419 298.572 88.3099 298.628 88.4539 298.74C88.5979 298.852 88.6699 299.04 88.6699 299.304C88.6699 299.56 88.5979 299.748 88.4539 299.868C88.3099 299.98 88.1419 300.036 87.9499 300.036C87.7419 300.036 87.5659 299.98 87.4219 299.868C87.2859 299.748 87.2179 299.56 87.2179 299.304C87.2179 299.04 87.2859 298.852 87.4219 298.74C87.5659 298.628 87.7419 298.572 87.9499 298.572ZM93.7274 302.004H92.1314V307.5H90.8594V302.004H89.7674V301.404L90.8594 301.008V300.6C90.8594 300.048 90.9435 299.608 91.1115 299.28C91.2875 298.944 91.5354 298.7 91.8554 298.548C92.1754 298.396 92.5634 298.32 93.0194 298.32C93.2994 298.32 93.5554 298.344 93.7874 298.392C94.0194 298.44 94.2155 298.492 94.3755 298.548L94.0514 299.52C93.9234 299.48 93.7754 299.444 93.6074 299.412C93.4394 299.372 93.2634 299.352 93.0794 299.352C92.7594 299.352 92.5194 299.456 92.3594 299.664C92.2074 299.872 92.1314 300.188 92.1314 300.612V301.032H93.7274V302.004ZM96.1274 301.032V307.5H94.8554V301.032H96.1274ZM95.5034 298.572C95.6954 298.572 95.8634 298.628 96.0074 298.74C96.1514 298.852 96.2234 299.04 96.2234 299.304C96.2234 299.56 96.1514 299.748 96.0074 299.868C95.8634 299.98 95.6954 300.036 95.5034 300.036C95.2954 300.036 95.1194 299.98 94.9754 299.868C94.8394 299.748 94.7714 299.56 94.7714 299.304C94.7714 299.04 94.8394 298.852 94.9754 298.74C95.1194 298.628 95.2954 298.572 95.5034 298.572ZM100.662 300.912C101.23 300.912 101.718 301.032 102.126 301.272C102.534 301.504 102.846 301.84 103.062 302.28C103.286 302.72 103.398 303.24 103.398 303.84V304.536H99.0543C99.0703 305.2 99.2424 305.708 99.5704 306.06C99.9064 306.412 100.374 306.588 100.974 306.588C101.39 306.588 101.758 306.552 102.078 306.48C102.406 306.4 102.742 306.284 103.086 306.132V307.188C102.766 307.332 102.438 307.44 102.102 307.512C101.774 307.584 101.382 307.62 100.926 307.62C100.302 307.62 99.7503 307.496 99.2703 307.248C98.7903 307 98.4143 306.632 98.1423 306.144C97.8783 305.648 97.7463 305.04 97.7463 304.32C97.7463 303.592 97.8663 302.976 98.1063 302.472C98.3543 301.968 98.6944 301.584 99.1264 301.32C99.5664 301.048 100.078 300.912 100.662 300.912ZM100.662 301.896C100.206 301.896 99.8383 302.044 99.5583 302.34C99.2863 302.636 99.1263 303.056 99.0783 303.6H102.126C102.126 303.264 102.074 302.968 101.97 302.712C101.866 302.456 101.706 302.256 101.49 302.112C101.274 301.968 100.998 301.896 100.662 301.896ZM107.205 307.62C106.429 307.62 105.801 307.34 105.321 306.78C104.849 306.22 104.613 305.388 104.613 304.284C104.613 303.172 104.853 302.332 105.333 301.764C105.813 301.196 106.445 300.912 107.229 300.912C107.557 300.912 107.841 300.956 108.081 301.044C108.329 301.124 108.541 301.236 108.717 301.38C108.901 301.524 109.057 301.684 109.185 301.86H109.257C109.241 301.748 109.221 301.588 109.197 301.38C109.173 301.164 109.161 300.972 109.161 300.804V298.38H110.433V307.5H109.437L109.221 306.636H109.161C109.041 306.82 108.889 306.988 108.705 307.14C108.529 307.284 108.317 307.4 108.069 307.488C107.821 307.576 107.533 307.62 107.205 307.62ZM107.505 306.576C108.129 306.576 108.569 306.404 108.825 306.06C109.081 305.708 109.209 305.184 109.209 304.488V304.296C109.209 303.536 109.085 302.956 108.837 302.556C108.597 302.156 108.149 301.956 107.493 301.956C106.973 301.956 106.581 302.168 106.317 302.592C106.053 303.008 105.921 303.58 105.921 304.308C105.921 305.036 106.053 305.596 106.317 305.988C106.581 306.38 106.977 306.576 107.505 306.576Z" fill="#64748B"/>
<path d="M450.781 307.5H448.667V301.718C448.667 301.559 448.667 301.363 448.667 301.13C448.676 300.897 448.686 300.654 448.695 300.402C448.704 300.15 448.714 299.926 448.723 299.73C448.676 299.786 448.574 299.889 448.415 300.038C448.266 300.178 448.126 300.304 447.995 300.416L446.847 301.34L445.825 300.066L449.045 297.504H450.781V307.5ZM458.793 307.5H456.679V301.718C456.679 301.559 456.679 301.363 456.679 301.13C456.688 300.897 456.697 300.654 456.707 300.402C456.716 300.15 456.725 299.926 456.735 299.73C456.688 299.786 456.585 299.889 456.427 300.038C456.277 300.178 456.137 300.304 456.007 300.416L454.859 301.34L453.837 300.066L457.057 297.504H458.793V307.5ZM462.576 307.5L466.328 299.282H461.4V297.504H468.568V298.834L464.788 307.5H462.576ZM476.983 305.974C477.216 305.974 477.44 305.951 477.655 305.904C477.87 305.857 478.084 305.801 478.299 305.736V307.29C478.075 307.383 477.795 307.463 477.459 307.528C477.132 307.603 476.773 307.64 476.381 307.64C475.924 307.64 475.513 307.565 475.149 307.416C474.794 307.267 474.51 307.01 474.295 306.646C474.09 306.273 473.987 305.759 473.987 305.106V301.424H472.993V300.542L474.141 299.842L474.743 298.232H476.073V299.856H478.215V301.424H476.073V305.106C476.073 305.395 476.157 305.615 476.325 305.764C476.493 305.904 476.712 305.974 476.983 305.974ZM484.103 299.716C484.206 299.716 484.327 299.721 484.467 299.73C484.607 299.739 484.719 299.753 484.803 299.772L484.649 301.732C484.584 301.713 484.486 301.699 484.355 301.69C484.234 301.671 484.127 301.662 484.033 301.662C483.763 301.662 483.501 301.699 483.249 301.774C482.997 301.839 482.769 301.947 482.563 302.096C482.367 302.245 482.209 302.446 482.087 302.698C481.975 302.941 481.919 303.244 481.919 303.608V307.5H479.833V299.856H481.415L481.723 301.144H481.821C481.971 300.883 482.157 300.645 482.381 300.43C482.605 300.215 482.862 300.043 483.151 299.912C483.45 299.781 483.767 299.716 484.103 299.716ZM489.053 299.702C490.08 299.702 490.864 299.926 491.405 300.374C491.956 300.813 492.231 301.489 492.231 302.404V307.5H490.775L490.369 306.464H490.313C490.099 306.735 489.875 306.959 489.641 307.136C489.417 307.313 489.156 307.439 488.857 307.514C488.568 307.598 488.209 307.64 487.779 307.64C487.331 307.64 486.925 307.556 486.561 307.388C486.207 307.211 485.927 306.945 485.721 306.59C485.516 306.226 485.413 305.769 485.413 305.218C485.413 304.406 485.698 303.809 486.267 303.426C486.837 303.034 487.691 302.819 488.829 302.782L490.159 302.74V302.404C490.159 302.003 490.052 301.709 489.837 301.522C489.632 301.335 489.343 301.242 488.969 301.242C488.596 301.242 488.232 301.298 487.877 301.41C487.523 301.513 487.168 301.643 486.813 301.802L486.127 300.388C486.538 300.173 486.991 300.005 487.485 299.884C487.989 299.763 488.512 299.702 489.053 299.702ZM489.347 303.986C488.675 304.005 488.209 304.126 487.947 304.35C487.686 304.574 487.555 304.868 487.555 305.232C487.555 305.549 487.649 305.778 487.835 305.918C488.022 306.049 488.265 306.114 488.563 306.114C489.011 306.114 489.389 305.983 489.697 305.722C490.005 305.451 490.159 305.073 490.159 304.588V303.958L489.347 303.986ZM498.706 299.716C499.528 299.716 500.186 299.94 500.68 300.388C501.175 300.827 501.422 301.536 501.422 302.516V307.5H499.336V303.034C499.336 302.483 499.238 302.073 499.042 301.802C498.846 301.522 498.534 301.382 498.104 301.382C497.47 301.382 497.036 301.601 496.802 302.04C496.569 302.469 496.452 303.09 496.452 303.902V307.5H494.366V299.856H495.962L496.242 300.836H496.354C496.522 300.575 496.728 300.365 496.97 300.206C497.213 300.038 497.484 299.917 497.782 299.842C498.081 299.758 498.389 299.716 498.706 299.716ZM508.902 305.232C508.902 305.745 508.78 306.184 508.538 306.548C508.295 306.903 507.931 307.173 507.446 307.36C506.96 307.547 506.358 307.64 505.64 307.64C505.108 307.64 504.65 307.603 504.268 307.528C503.885 307.463 503.502 307.351 503.12 307.192V305.47C503.53 305.657 503.974 305.811 504.45 305.932C504.926 306.053 505.346 306.114 505.71 306.114C506.12 306.114 506.41 306.053 506.578 305.932C506.755 305.811 506.844 305.652 506.844 305.456C506.844 305.325 506.806 305.209 506.732 305.106C506.666 305.003 506.517 304.887 506.284 304.756C506.05 304.625 505.686 304.457 505.192 304.252C504.716 304.047 504.324 303.846 504.016 303.65C503.708 303.445 503.479 303.202 503.33 302.922C503.18 302.633 503.106 302.273 503.106 301.844C503.106 301.135 503.381 300.603 503.932 300.248C504.482 299.893 505.215 299.716 506.13 299.716C506.606 299.716 507.058 299.763 507.488 299.856C507.917 299.949 508.36 300.103 508.818 300.318L508.188 301.816C507.936 301.704 507.693 301.606 507.46 301.522C507.226 301.438 506.998 301.373 506.774 301.326C506.559 301.279 506.335 301.256 506.102 301.256C505.794 301.256 505.56 301.298 505.402 301.382C505.252 301.466 505.178 301.592 505.178 301.76C505.178 301.881 505.215 301.993 505.29 302.096C505.374 302.189 505.528 302.292 505.752 302.404C505.985 302.516 506.326 302.665 506.774 302.852C507.212 303.029 507.59 303.216 507.908 303.412C508.225 303.599 508.468 303.837 508.636 304.126C508.813 304.406 508.902 304.775 508.902 305.232ZM513.663 299.702C514.689 299.702 515.473 299.926 516.015 300.374C516.565 300.813 516.841 301.489 516.841 302.404V307.5H515.385L514.979 306.464H514.923C514.708 306.735 514.484 306.959 514.251 307.136C514.027 307.313 513.765 307.439 513.467 307.514C513.177 307.598 512.818 307.64 512.389 307.64C511.941 307.64 511.535 307.556 511.171 307.388C510.816 307.211 510.536 306.945 510.331 306.59C510.125 306.226 510.023 305.769 510.023 305.218C510.023 304.406 510.307 303.809 510.877 303.426C511.446 303.034 512.3 302.819 513.439 302.782L514.769 302.74V302.404C514.769 302.003 514.661 301.709 514.447 301.522C514.241 301.335 513.952 301.242 513.579 301.242C513.205 301.242 512.841 301.298 512.487 301.41C512.132 301.513 511.777 301.643 511.423 301.802L510.737 300.388C511.147 300.173 511.6 300.005 512.095 299.884C512.599 299.763 513.121 299.702 513.663 299.702ZM513.957 303.986C513.285 304.005 512.818 304.126 512.557 304.35C512.295 304.574 512.165 304.868 512.165 305.232C512.165 305.549 512.258 305.778 512.445 305.918C512.631 306.049 512.874 306.114 513.173 306.114C513.621 306.114 513.999 305.983 514.307 305.722C514.615 305.451 514.769 305.073 514.769 304.588V303.958L513.957 303.986ZM522.084 307.64C521.328 307.64 520.684 307.505 520.152 307.234C519.62 306.954 519.214 306.525 518.934 305.946C518.654 305.367 518.514 304.625 518.514 303.72C518.514 302.787 518.672 302.026 518.99 301.438C519.307 300.85 519.746 300.416 520.306 300.136C520.875 299.856 521.528 299.716 522.266 299.716C522.788 299.716 523.241 299.767 523.624 299.87C524.016 299.973 524.356 300.094 524.646 300.234L524.03 301.844C523.703 301.713 523.395 301.606 523.106 301.522C522.826 301.438 522.546 301.396 522.266 301.396C521.902 301.396 521.598 301.485 521.356 301.662C521.113 301.83 520.931 302.087 520.81 302.432C520.698 302.768 520.642 303.193 520.642 303.706C520.642 304.21 520.702 304.63 520.824 304.966C520.954 305.293 521.141 305.54 521.384 305.708C521.626 305.867 521.92 305.946 522.266 305.946C522.704 305.946 523.092 305.89 523.428 305.778C523.764 305.657 524.09 305.493 524.408 305.288V307.066C524.09 307.271 523.754 307.416 523.4 307.5C523.054 307.593 522.616 307.64 522.084 307.64ZM529.387 305.974C529.621 305.974 529.845 305.951 530.059 305.904C530.274 305.857 530.489 305.801 530.703 305.736V307.29C530.479 307.383 530.199 307.463 529.863 307.528C529.537 307.603 529.177 307.64 528.785 307.64C528.328 307.64 527.917 307.565 527.553 307.416C527.199 307.267 526.914 307.01 526.699 306.646C526.494 306.273 526.391 305.759 526.391 305.106V301.424H525.397V300.542L526.545 299.842L527.147 298.232H528.477V299.856H530.619V301.424H528.477V305.106C528.477 305.395 528.561 305.615 528.729 305.764C528.897 305.904 529.117 305.974 529.387 305.974ZM534.323 299.856V307.5H532.237V299.856H534.323ZM533.287 296.86C533.595 296.86 533.861 296.935 534.085 297.084C534.309 297.224 534.421 297.49 534.421 297.882C534.421 298.265 534.309 298.531 534.085 298.68C533.861 298.829 533.595 298.904 533.287 298.904C532.97 298.904 532.699 298.829 532.475 298.68C532.261 298.531 532.153 298.265 532.153 297.882C532.153 297.49 532.261 297.224 532.475 297.084C532.699 296.935 532.97 296.86 533.287 296.86ZM543.447 303.664C543.447 304.299 543.358 304.863 543.181 305.358C543.013 305.853 542.766 306.273 542.439 306.618C542.122 306.954 541.734 307.211 541.277 307.388C540.82 307.556 540.302 307.64 539.723 307.64C539.191 307.64 538.696 307.556 538.239 307.388C537.791 307.211 537.404 306.954 537.077 306.618C536.75 306.273 536.494 305.853 536.307 305.358C536.13 304.863 536.041 304.299 536.041 303.664C536.041 302.815 536.19 302.101 536.489 301.522C536.788 300.934 537.217 300.486 537.777 300.178C538.337 299.87 539 299.716 539.765 299.716C540.484 299.716 541.118 299.87 541.669 300.178C542.22 300.486 542.654 300.934 542.971 301.522C543.288 302.101 543.447 302.815 543.447 303.664ZM538.169 303.664C538.169 304.168 538.22 304.593 538.323 304.938C538.435 305.274 538.608 305.531 538.841 305.708C539.074 305.876 539.378 305.96 539.751 305.96C540.124 305.96 540.423 305.876 540.647 305.708C540.88 305.531 541.048 305.274 541.151 304.938C541.263 304.593 541.319 304.168 541.319 303.664C541.319 303.16 541.263 302.74 541.151 302.404C541.048 302.068 540.88 301.816 540.647 301.648C540.414 301.48 540.11 301.396 539.737 301.396C539.186 301.396 538.785 301.587 538.533 301.97C538.29 302.343 538.169 302.908 538.169 303.664ZM549.511 299.716C550.332 299.716 550.99 299.94 551.485 300.388C551.98 300.827 552.227 301.536 552.227 302.516V307.5H550.141V303.034C550.141 302.483 550.043 302.073 549.847 301.802C549.651 301.522 549.338 301.382 548.909 301.382C548.274 301.382 547.84 301.601 547.607 302.04C547.374 302.469 547.257 303.09 547.257 303.902V307.5H545.171V299.856H546.767L547.047 300.836H547.159C547.327 300.575 547.532 300.365 547.775 300.206C548.018 300.038 548.288 299.917 548.587 299.842C548.886 299.758 549.194 299.716 549.511 299.716ZM559.706 305.232C559.706 305.745 559.585 306.184 559.342 306.548C559.1 306.903 558.736 307.173 558.25 307.36C557.765 307.547 557.163 307.64 556.444 307.64C555.912 307.64 555.455 307.603 555.072 307.528C554.69 307.463 554.307 307.351 553.924 307.192V305.47C554.335 305.657 554.778 305.811 555.254 305.932C555.73 306.053 556.15 306.114 556.514 306.114C556.925 306.114 557.214 306.053 557.382 305.932C557.56 305.811 557.648 305.652 557.648 305.456C557.648 305.325 557.611 305.209 557.536 305.106C557.471 305.003 557.322 304.887 557.088 304.756C556.855 304.625 556.491 304.457 555.996 304.252C555.52 304.047 555.128 303.846 554.82 303.65C554.512 303.445 554.284 303.202 554.134 302.922C553.985 302.633 553.91 302.273 553.91 301.844C553.91 301.135 554.186 300.603 554.736 300.248C555.287 299.893 556.02 299.716 556.934 299.716C557.41 299.716 557.863 299.763 558.292 299.856C558.722 299.949 559.165 300.103 559.622 300.318L558.992 301.816C558.74 301.704 558.498 301.606 558.264 301.522C558.031 301.438 557.802 301.373 557.578 301.326C557.364 301.279 557.14 301.256 556.906 301.256C556.598 301.256 556.365 301.298 556.206 301.382C556.057 301.466 555.982 301.592 555.982 301.76C555.982 301.881 556.02 301.993 556.094 302.096C556.178 302.189 556.332 302.292 556.556 302.404C556.79 302.516 557.13 302.665 557.578 302.852C558.017 303.029 558.395 303.216 558.712 303.412C559.03 303.599 559.272 303.837 559.44 304.126C559.618 304.406 559.706 304.775 559.706 305.232Z" fill="#1A1A1A"/>
<path d="M44.3252 94.25H32.3252C29.0115 94.25 26.3252 96.9363 26.3252 100.25V112.25C26.3252 115.564 29.0115 118.25 32.3252 118.25H44.3252C47.6389 118.25 50.3252 115.564 50.3252 112.25V100.25C50.3252 96.9363 47.6389 94.25 44.3252 94.25Z" fill="#C5F7D4"/>
<path d="M44.8593 104.917C45.1637 106.411 44.9467 107.964 44.2445 109.318C43.5423 110.671 42.3972 111.743 41.0003 112.355C39.6034 112.966 38.039 113.081 36.5681 112.678C35.0972 112.276 33.8087 111.382 32.9175 110.144C32.0262 108.907 31.586 107.401 31.6704 105.879C31.7547 104.356 32.3585 102.909 33.381 101.777C34.4035 100.646 35.783 99.9 37.2893 99.662C38.7956 99.425 40.3378 99.711 41.6586 100.473" stroke="#16A249" stroke-width="1.33333" stroke-linecap="round" stroke-linejoin="round"/>
<path d="M36.3252 105.583L38.3252 107.583L44.9919 100.917" stroke="#16A249" stroke-width="1.33333" stroke-linecap="round" stroke-linejoin="round"/>
<path d="M67.607 109.89H65.815V105.452H61.419V109.89H59.627V99.894H61.419V103.926H65.815V99.894H67.607V109.89ZM71.805 102.302V109.89H70.041V102.302H71.805ZM70.923 99.376C71.1844 99.376 71.413 99.446 71.609 99.586C71.805 99.7167 71.903 99.955 71.903 100.3C71.903 100.636 71.805 100.879 71.609 101.028C71.413 101.168 71.1844 101.238 70.923 101.238C70.6524 101.238 70.419 101.168 70.223 101.028C70.0364 100.879 69.943 100.636 69.943 100.3C69.943 99.955 70.0364 99.7167 70.223 99.586C70.419 99.446 70.6524 99.376 70.923 99.376ZM76.6086 102.162C77.0846 102.162 77.5139 102.255 77.8966 102.442C78.2792 102.629 78.6012 102.909 78.8626 103.282H78.9326L79.1006 102.302H80.5706V109.946C80.5706 110.665 80.4352 111.267 80.1646 111.752C79.8939 112.247 79.4879 112.62 78.9466 112.872C78.4052 113.124 77.7286 113.25 76.9166 113.25C76.3752 113.25 75.8759 113.213 75.4186 113.138C74.9612 113.073 74.5272 112.956 74.1166 112.788V111.332C74.4059 111.453 74.7046 111.556 75.0126 111.64C75.3299 111.733 75.6566 111.803 75.9926 111.85C76.3286 111.897 76.6739 111.92 77.0286 111.92C77.6072 111.92 78.0459 111.757 78.3446 111.43C78.6526 111.103 78.8066 110.637 78.8066 110.03V109.834C78.8066 109.694 78.8112 109.531 78.8206 109.344C78.8392 109.157 78.8532 109.008 78.8626 108.896H78.8066C78.5452 109.288 78.2279 109.577 77.8546 109.764C77.4812 109.941 77.0519 110.03 76.5666 110.03C75.6426 110.03 74.9192 109.685 74.3966 108.994C73.8739 108.303 73.6126 107.342 73.6126 106.11C73.6126 105.279 73.7292 104.57 73.9626 103.982C74.2052 103.394 74.5506 102.946 74.9986 102.638C75.4466 102.321 75.9832 102.162 76.6086 102.162ZM77.0706 103.604C76.7159 103.604 76.4126 103.702 76.1606 103.898C75.9179 104.085 75.7312 104.365 75.6006 104.738C75.4792 105.111 75.4186 105.578 75.4186 106.138C75.4186 106.959 75.5586 107.58 75.8386 108C76.1186 108.42 76.5386 108.63 77.0986 108.63C77.4159 108.63 77.6866 108.593 77.9106 108.518C78.1346 108.434 78.3166 108.303 78.4566 108.126C78.6059 107.939 78.7179 107.706 78.7926 107.426C78.8672 107.137 78.9046 106.791 78.9046 106.39V106.124C78.9046 105.517 78.8392 105.032 78.7086 104.668C78.5779 104.295 78.3772 104.024 78.1066 103.856C77.8452 103.688 77.4999 103.604 77.0706 103.604ZM84.5882 101.784C84.5882 102.083 84.5742 102.377 84.5462 102.666C84.5276 102.946 84.5089 103.156 84.4902 103.296H84.6022C84.7609 103.035 84.9569 102.825 85.1902 102.666C85.4236 102.498 85.6802 102.372 85.9602 102.288C86.2496 102.204 86.5482 102.162 86.8562 102.162C87.4256 102.162 87.9156 102.26 88.3262 102.456C88.7369 102.652 89.0496 102.955 89.2642 103.366C89.4882 103.767 89.6002 104.295 89.6002 104.948V109.89H87.8362V105.298C87.8362 104.719 87.7242 104.29 87.5002 104.01C87.2762 103.73 86.9216 103.59 86.4362 103.59C85.9696 103.59 85.6009 103.693 85.3302 103.898C85.0596 104.094 84.8682 104.388 84.7562 104.78C84.6442 105.163 84.5882 105.634 84.5882 106.194V109.89H82.8242V99.25H84.5882V101.784Z" fill="#1A1A1A"/>
<path d="M497.993 105.002C498.6 105.002 499.141 105.119 499.617 105.352C500.093 105.585 500.467 105.926 500.737 106.374C501.017 106.822 501.157 107.377 501.157 108.04C501.157 108.759 501.008 109.379 500.709 109.902C500.411 110.425 499.963 110.826 499.365 111.106C498.777 111.386 498.045 111.526 497.167 111.526C496.645 111.526 496.15 111.479 495.683 111.386C495.226 111.293 494.825 111.157 494.479 110.98V109.16C494.825 109.337 495.24 109.491 495.725 109.622C496.211 109.743 496.668 109.804 497.097 109.804C497.517 109.804 497.867 109.748 498.147 109.636C498.437 109.524 498.656 109.351 498.805 109.118C498.955 108.885 499.029 108.586 499.029 108.222C499.029 107.727 498.866 107.354 498.539 107.102C498.213 106.841 497.709 106.71 497.027 106.71C496.766 106.71 496.495 106.738 496.215 106.794C495.935 106.841 495.702 106.887 495.515 106.934L494.675 106.486L495.053 101.39H500.471V103.182H496.901L496.719 105.142C496.878 105.114 497.046 105.086 497.223 105.058C497.41 105.021 497.667 105.002 497.993 105.002ZM506.005 105.002C506.612 105.002 507.153 105.119 507.629 105.352C508.105 105.585 508.478 105.926 508.749 106.374C509.029 106.822 509.169 107.377 509.169 108.04C509.169 108.759 509.02 109.379 508.721 109.902C508.422 110.425 507.974 110.826 507.377 111.106C506.789 111.386 506.056 111.526 505.179 111.526C504.656 111.526 504.162 111.479 503.695 111.386C503.238 111.293 502.836 111.157 502.491 110.98V109.16C502.836 109.337 503.252 109.491 503.737 109.622C504.222 109.743 504.68 109.804 505.109 109.804C505.529 109.804 505.879 109.748 506.159 109.636C506.448 109.524 506.668 109.351 506.817 109.118C506.966 108.885 507.041 108.586 507.041 108.222C507.041 107.727 506.878 107.354 506.551 107.102C506.224 106.841 505.72 106.71 505.039 106.71C504.778 106.71 504.507 106.738 504.227 106.794C503.947 106.841 503.714 106.887 503.527 106.934L502.687 106.486L503.065 101.39H508.483V103.182H504.913L504.731 105.142C504.89 105.114 505.058 105.086 505.235 105.058C505.422 105.021 505.678 105.002 506.005 105.002ZM512.603 101.25C513.387 101.25 513.98 101.525 514.381 102.076C514.792 102.617 514.997 103.383 514.997 104.372C514.997 105.361 514.806 106.136 514.423 106.696C514.04 107.247 513.434 107.522 512.603 107.522C512.09 107.522 511.656 107.396 511.301 107.144C510.956 106.892 510.694 106.533 510.517 106.066C510.34 105.59 510.251 105.025 510.251 104.372C510.251 103.383 510.438 102.617 510.811 102.076C511.184 101.525 511.782 101.25 512.603 101.25ZM512.617 102.678C512.393 102.678 512.23 102.818 512.127 103.098C512.024 103.378 511.973 103.807 511.973 104.386C511.973 104.955 512.024 105.385 512.127 105.674C512.23 105.963 512.393 106.108 512.617 106.108C512.841 106.108 513.004 105.963 513.107 105.674C513.219 105.385 513.275 104.955 513.275 104.386C513.275 103.807 513.219 103.378 513.107 103.098C513.004 102.818 512.841 102.678 512.617 102.678ZM519.701 101.39L514.157 111.386H512.519L518.063 101.39H519.701ZM519.603 105.24C520.126 105.24 520.564 105.366 520.919 105.618C521.274 105.861 521.54 106.215 521.717 106.682C521.904 107.139 521.997 107.699 521.997 108.362C521.997 109.351 521.806 110.126 521.423 110.686C521.04 111.237 520.434 111.512 519.603 111.512C519.09 111.512 518.656 111.386 518.301 111.134C517.956 110.882 517.694 110.523 517.517 110.056C517.34 109.58 517.251 109.015 517.251 108.362C517.251 107.373 517.438 106.607 517.811 106.066C518.184 105.515 518.782 105.24 519.603 105.24ZM519.617 106.668C519.393 106.668 519.23 106.808 519.127 107.088C519.024 107.368 518.973 107.797 518.973 108.376C518.973 108.945 519.024 109.375 519.127 109.664C519.23 109.953 519.393 110.098 519.617 110.098C519.841 110.098 520.004 109.958 520.107 109.678C520.219 109.389 520.275 108.955 520.275 108.376C520.275 107.797 520.219 107.368 520.107 107.088C520.004 106.808 519.841 106.668 519.617 106.668Z" fill="#16A249"/>
<mask id="mask1_2084_118" style="mask-type:luminance" maskUnits="userSpaceOnUse" x="130" y="102" width="324" height="9">
<path d="M450.852 102.25H132.799C131.433 102.25 130.325 104.041 130.325 106.25C130.325 108.459 131.433 110.25 132.799 110.25H450.852C452.218 110.25 453.325 108.459 453.325 106.25C453.325 104.041 452.218 102.25 450.852 102.25Z" fill="white"/>
</mask>
<g mask="url(#mask1_2084_118)">
<path d="M450.852 102.25H132.799C131.433 102.25 130.325 104.041 130.325 106.25C130.325 108.459 131.433 110.25 132.799 110.25H450.852C452.218 110.25 453.325 108.459 453.325 106.25C453.325 104.041 452.218 102.25 450.852 102.25Z" fill="#F1F5F9"/>
<path d="M307.253 102.25H-15.4502V110.25H307.253V102.25Z" fill="#0A57DB"/>
</g>
<path d="M44.3252 152.25H32.3252C29.0115 152.25 26.3252 154.936 26.3252 158.25V170.25C26.3252 173.564 29.0115 176.25 32.3252 176.25H44.3252C47.6389 176.25 50.3252 173.564 50.3252 170.25V158.25C50.3252 154.936 47.6389 152.25 44.3252 152.25Z" fill="#FEF3C8"/>
<path d="M38.3248 170.917C42.0067 170.917 44.9915 167.932 44.9915 164.25C44.9915 160.568 42.0067 157.583 38.3248 157.583C34.6429 157.583 31.6582 160.568 31.6582 164.25C31.6582 167.932 34.6429 170.917 38.3248 170.917Z" stroke="#BD6705" stroke-width="1.33333" stroke-linecap="round" stroke-linejoin="round"/>
<path d="M38.3252 161.583V164.25" stroke="#BD6705" stroke-width="1.33333" stroke-linecap="round" stroke-linejoin="round"/>
<path d="M38.3252 166.917H38.3319" stroke="#BD6705" stroke-width="1.33333" stroke-linecap="round" stroke-linejoin="round"/>
<path d="M63.925 168.89L61.181 160.7H61.125C61.1343 160.887 61.1483 161.153 61.167 161.498C61.1857 161.834 61.1997 162.203 61.209 162.604C61.2277 162.996 61.237 163.365 61.237 163.71V168.89H59.627V158.894H62.119L64.751 166.748H64.807L67.551 158.894H70.043V168.89H68.335V163.626C68.335 163.309 68.3397 162.963 68.349 162.59C68.3677 162.207 68.3817 161.848 68.391 161.512C68.4097 161.167 68.4237 160.901 68.433 160.714H68.377L65.521 168.89H63.925ZM75.513 161.162C76.1943 161.162 76.7776 161.302 77.263 161.582C77.7576 161.853 78.1403 162.245 78.411 162.758C78.6816 163.262 78.817 163.878 78.817 164.606V165.502H73.805C73.8236 166.193 74.015 166.729 74.379 167.112C74.743 167.485 75.247 167.672 75.891 167.672C76.3856 167.672 76.8243 167.625 77.207 167.532C77.599 167.429 78.0003 167.285 78.411 167.098V168.512C78.0376 168.689 77.6503 168.82 77.249 168.904C76.8476 168.988 76.367 169.03 75.807 169.03C75.0696 169.03 74.4116 168.89 73.833 168.61C73.2636 168.321 72.8156 167.887 72.489 167.308C72.1716 166.729 72.013 166.011 72.013 165.152C72.013 164.284 72.1576 163.556 72.447 162.968C72.7456 162.371 73.1563 161.923 73.679 161.624C74.2016 161.316 74.813 161.162 75.513 161.162ZM75.513 162.464C75.0463 162.464 74.6636 162.618 74.365 162.926C74.0756 163.225 73.903 163.673 73.847 164.27H77.109C77.109 163.915 77.0483 163.603 76.927 163.332C76.815 163.061 76.6423 162.851 76.409 162.702C76.1756 162.543 75.877 162.464 75.513 162.464ZM83.1017 169.03C82.2244 169.03 81.5104 168.703 80.9597 168.05C80.4184 167.387 80.1477 166.407 80.1477 165.11C80.1477 163.813 80.4231 162.833 80.9737 162.17C81.5244 161.498 82.2477 161.162 83.1437 161.162C83.5171 161.162 83.8437 161.213 84.1237 161.316C84.4131 161.409 84.6604 161.54 84.8657 161.708C85.0711 161.876 85.2437 162.063 85.3837 162.268H85.4677C85.4397 162.137 85.4117 161.937 85.3837 161.666C85.3557 161.395 85.3417 161.143 85.3417 160.91V158.25H87.1057V168.89H85.7337L85.4117 167.896H85.3417C85.2017 168.101 85.0291 168.293 84.8237 168.47C84.6184 168.638 84.3757 168.773 84.0957 168.876C83.8157 168.979 83.4844 169.03 83.1017 169.03ZM83.6337 167.602C84.2871 167.602 84.7491 167.415 85.0197 167.042C85.2904 166.669 85.4257 166.104 85.4257 165.348V165.124C85.4257 164.303 85.2951 163.677 85.0337 163.248C84.7817 162.819 84.3057 162.604 83.6057 162.604C83.0737 162.604 82.6631 162.828 82.3737 163.276C82.0844 163.715 81.9397 164.335 81.9397 165.138C81.9397 165.941 82.0844 166.552 82.3737 166.972C82.6631 167.392 83.0831 167.602 83.6337 167.602ZM91.1234 161.302V168.89H89.3594V161.302H91.1234ZM90.2414 158.376C90.5027 158.376 90.7314 158.446 90.9274 158.586C91.1234 158.717 91.2214 158.955 91.2214 159.3C91.2214 159.636 91.1234 159.879 90.9274 160.028C90.7314 160.168 90.5027 160.238 90.2414 160.238C89.9707 160.238 89.7374 160.168 89.5414 160.028C89.3547 159.879 89.2614 159.636 89.2614 159.3C89.2614 158.955 89.3547 158.717 89.5414 158.586C89.7374 158.446 89.9707 158.376 90.2414 158.376ZM100.113 161.302V168.89H98.7269L98.4889 167.91H98.4049C98.2463 168.171 98.0409 168.386 97.7889 168.554C97.5369 168.713 97.2616 168.829 96.9629 168.904C96.6643 168.988 96.3563 169.03 96.0389 169.03C95.4789 169.03 94.9936 168.932 94.5829 168.736C94.1723 168.54 93.8596 168.241 93.6449 167.84C93.4303 167.429 93.3229 166.902 93.3229 166.258V161.302H95.0869V165.908C95.0869 166.468 95.1989 166.893 95.4229 167.182C95.6469 167.462 96.0016 167.602 96.4869 167.602C96.9629 167.602 97.3363 167.504 97.6069 167.308C97.8776 167.103 98.0689 166.809 98.1809 166.426C98.2929 166.043 98.3489 165.572 98.3489 165.012V161.302H100.113ZM111.055 161.162C111.914 161.162 112.558 161.381 112.987 161.82C113.426 162.259 113.645 162.968 113.645 163.948V168.89H111.881V164.284C111.881 163.724 111.779 163.304 111.573 163.024C111.368 162.735 111.041 162.59 110.593 162.59C109.977 162.59 109.539 162.791 109.277 163.192C109.016 163.593 108.885 164.177 108.885 164.942V168.89H107.121V164.284C107.121 163.911 107.075 163.598 106.981 163.346C106.888 163.094 106.743 162.907 106.547 162.786C106.361 162.655 106.118 162.59 105.819 162.59C105.399 162.59 105.063 162.693 104.811 162.898C104.559 163.094 104.382 163.383 104.279 163.766C104.177 164.149 104.125 164.62 104.125 165.18V168.89H102.361V161.302H103.719L103.971 162.296H104.069C104.228 162.035 104.419 161.82 104.643 161.652C104.877 161.484 105.133 161.363 105.413 161.288C105.703 161.204 105.992 161.162 106.281 161.162C106.851 161.162 107.331 161.26 107.723 161.456C108.115 161.643 108.409 161.937 108.605 162.338H108.745C108.979 161.927 109.305 161.629 109.725 161.442C110.155 161.255 110.598 161.162 111.055 161.162Z" fill="#1A1A1A"/>
<path d="M500.947 160.63C500.947 161.087 500.849 161.484 500.653 161.82C500.467 162.156 500.21 162.431 499.883 162.646C499.566 162.861 499.202 163.019 498.791 163.122V163.164C499.594 163.257 500.201 163.5 500.611 163.892C501.031 164.284 501.241 164.811 501.241 165.474C501.241 166.053 501.097 166.575 500.807 167.042C500.527 167.499 500.089 167.863 499.491 168.134C498.903 168.395 498.143 168.526 497.209 168.526C496.659 168.526 496.145 168.479 495.669 168.386C495.193 168.293 494.745 168.157 494.325 167.98V166.188C494.755 166.403 495.203 166.566 495.669 166.678C496.145 166.79 496.584 166.846 496.985 166.846C497.741 166.846 498.269 166.715 498.567 166.454C498.875 166.193 499.029 165.824 499.029 165.348C499.029 165.068 498.959 164.835 498.819 164.648C498.679 164.452 498.432 164.307 498.077 164.214C497.732 164.111 497.247 164.06 496.621 164.06H495.865V162.436H496.635C497.251 162.436 497.718 162.38 498.035 162.268C498.362 162.147 498.581 161.988 498.693 161.792C498.815 161.587 498.875 161.353 498.875 161.092C498.875 160.737 498.763 160.462 498.539 160.266C498.325 160.061 497.961 159.958 497.447 159.958C497.13 159.958 496.841 160 496.579 160.084C496.318 160.159 496.08 160.252 495.865 160.364C495.66 160.476 495.478 160.583 495.319 160.686L494.339 159.23C494.601 159.043 494.89 158.875 495.207 158.726C495.534 158.577 495.893 158.46 496.285 158.376C496.677 158.292 497.116 158.25 497.601 158.25C498.628 158.25 499.44 158.46 500.037 158.88C500.644 159.291 500.947 159.874 500.947 160.63ZM509.575 166.314H508.371V168.386H506.313V166.314H502.043V164.844L506.425 158.39H508.371V164.676H509.575V166.314ZM506.313 162.982C506.313 162.823 506.313 162.637 506.313 162.422C506.322 162.198 506.332 161.979 506.341 161.764C506.35 161.54 506.36 161.344 506.369 161.176C506.378 160.999 506.388 160.877 506.397 160.812H506.341C506.257 160.999 506.168 161.181 506.075 161.358C505.982 161.535 505.87 161.717 505.739 161.904L503.905 164.676H506.313V162.982ZM512.603 158.25C513.387 158.25 513.979 158.525 514.381 159.076C514.791 159.617 514.997 160.383 514.997 161.372C514.997 162.361 514.805 163.136 514.423 163.696C514.04 164.247 513.433 164.522 512.603 164.522C512.089 164.522 511.655 164.396 511.301 164.144C510.955 163.892 510.694 163.533 510.517 163.066C510.339 162.59 510.251 162.025 510.251 161.372C510.251 160.383 510.437 159.617 510.811 159.076C511.184 158.525 511.781 158.25 512.603 158.25ZM512.617 159.678C512.393 159.678 512.229 159.818 512.127 160.098C512.024 160.378 511.973 160.807 511.973 161.386C511.973 161.955 512.024 162.385 512.127 162.674C512.229 162.963 512.393 163.108 512.617 163.108C512.841 163.108 513.004 162.963 513.107 162.674C513.219 162.385 513.275 161.955 513.275 161.386C513.275 160.807 513.219 160.378 513.107 160.098C513.004 159.818 512.841 159.678 512.617 159.678ZM519.701 158.39L514.157 168.386H512.519L518.063 158.39H519.701ZM519.603 162.24C520.125 162.24 520.564 162.366 520.919 162.618C521.273 162.861 521.539 163.215 521.717 163.682C521.903 164.139 521.997 164.699 521.997 165.362C521.997 166.351 521.805 167.126 521.423 167.686C521.04 168.237 520.433 168.512 519.603 168.512C519.089 168.512 518.655 168.386 518.301 168.134C517.955 167.882 517.694 167.523 517.517 167.056C517.339 166.58 517.251 166.015 517.251 165.362C517.251 164.373 517.437 163.607 517.811 163.066C518.184 162.515 518.781 162.24 519.603 162.24ZM519.617 163.668C519.393 163.668 519.229 163.808 519.127 164.088C519.024 164.368 518.973 164.797 518.973 165.376C518.973 165.945 519.024 166.375 519.127 166.664C519.229 166.953 519.393 167.098 519.617 167.098C519.841 167.098 520.004 166.958 520.107 166.678C520.219 166.389 520.275 165.955 520.275 165.376C520.275 164.797 520.219 164.368 520.107 164.088C520.004 163.808 519.841 163.668 519.617 163.668Z" fill="#BD6705"/>
<mask id="mask2_2084_118" style="mask-type:luminance" maskUnits="userSpaceOnUse" x="130" y="160" width="324" height="9">
<path d="M450.852 160.25H133.052C131.686 160.25 130.579 162.041 130.579 164.25C130.579 166.459 131.686 168.25 133.052 168.25H450.852C452.218 168.25 453.325 166.459 453.325 164.25C453.325 162.041 452.218 160.25 450.852 160.25Z" fill="white"/>
</mask>
<g mask="url(#mask2_2084_118)">
<path d="M450.852 160.25H133.052C131.686 160.25 130.579 162.041 130.579 164.25C130.579 166.459 131.686 168.25 133.052 168.25H450.852C452.218 168.25 453.325 166.459 453.325 164.25C453.325 162.041 452.218 160.25 450.852 160.25Z" fill="#F1F5F9"/>
<path d="M239.482 160.25H-83.2207V168.25H239.482V160.25Z" fill="#0A57DB"/>
</g>
<path d="M44.3252 210.25H32.3252C29.0115 210.25 26.3252 212.936 26.3252 216.25V228.25C26.3252 231.564 29.0115 234.25 32.3252 234.25H44.3252C47.6389 234.25 50.3252 231.564 50.3252 228.25V216.25C50.3252 212.936 47.6389 210.25 44.3252 210.25Z" fill="#FDDEDE"/>
<path d="M38.3248 228.584C42.0067 228.584 44.9915 225.599 44.9915 221.917C44.9915 218.235 42.0067 215.25 38.3248 215.25C34.6429 215.25 31.6582 218.235 31.6582 221.917C31.6582 225.599 34.6429 228.584 38.3248 228.584Z" stroke="#EF4343" stroke-width="1.33333" stroke-linecap="round" stroke-linejoin="round"/>
<path d="M40.3252 220.25L36.3252 224.25" stroke="#EF4343" stroke-width="1.33333" stroke-linecap="round" stroke-linejoin="round"/>
<path d="M36.3252 220.25L40.3252 224.25" stroke="#EF4343" stroke-width="1.33333" stroke-linecap="round" stroke-linejoin="round"/>
<path d="M59.627 227.246V217.25H61.419V225.734H65.591V227.246H59.627ZM73.9323 223.438C73.9323 224.073 73.8483 224.633 73.6803 225.118C73.5123 225.603 73.2696 226.019 72.9523 226.364C72.6443 226.7 72.2616 226.957 71.8043 227.134C71.3563 227.302 70.8569 227.386 70.3063 227.386C69.7836 227.386 69.3029 227.302 68.8643 227.134C68.4256 226.957 68.0429 226.7 67.7163 226.364C67.3989 226.019 67.1516 225.603 66.9743 225.118C66.7969 224.633 66.7083 224.073 66.7083 223.438C66.7083 222.598 66.8529 221.889 67.1423 221.31C67.4316 220.722 67.8469 220.279 68.3883 219.98C68.9389 219.672 69.5876 219.518 70.3343 219.518C71.0436 219.518 71.6643 219.672 72.1963 219.98C72.7376 220.279 73.1623 220.722 73.4703 221.31C73.7783 221.889 73.9323 222.598 73.9323 223.438ZM68.5143 223.438C68.5143 223.97 68.5749 224.427 68.6963 224.81C68.8269 225.183 69.0229 225.468 69.2843 225.664C69.5549 225.86 69.9003 225.958 70.3203 225.958C70.7496 225.958 71.0949 225.86 71.3563 225.664C71.6269 225.468 71.8229 225.183 71.9443 224.81C72.0656 224.427 72.1263 223.97 72.1263 223.438C72.1263 222.897 72.0609 222.444 71.9303 222.08C71.8089 221.707 71.6129 221.427 71.3423 221.24C71.0809 221.044 70.7403 220.946 70.3203 220.946C69.6856 220.946 69.2236 221.161 68.9343 221.59C68.6543 222.019 68.5143 222.635 68.5143 223.438ZM80.8584 223.984C80.8118 223.807 80.7558 223.587 80.6904 223.326C80.6251 223.055 80.5551 222.775 80.4804 222.486C80.4151 222.197 80.3498 221.931 80.2844 221.688C80.2284 221.445 80.1911 221.259 80.1724 221.128H80.1164C80.0884 221.259 80.0464 221.445 79.9904 221.688C79.9344 221.931 79.8738 222.197 79.8084 222.486C79.7431 222.775 79.6731 223.055 79.5984 223.326C79.5331 223.597 79.4771 223.821 79.4304 223.998L78.5484 227.246H76.6164L74.4884 219.644H76.2664L77.2044 223.27C77.2698 223.513 77.3304 223.788 77.3864 224.096C77.4518 224.404 77.5078 224.703 77.5544 224.992C77.6011 225.272 77.6338 225.501 77.6524 225.678H77.7084C77.7271 225.557 77.7504 225.398 77.7784 225.202C77.8064 224.997 77.8391 224.787 77.8764 224.572C77.9231 224.348 77.9651 224.143 78.0024 223.956C78.0491 223.769 78.0864 223.625 78.1144 223.522L79.2064 219.644H81.1384L82.1884 223.522C82.2351 223.69 82.2864 223.909 82.3424 224.18C82.3984 224.451 82.4498 224.721 82.4964 224.992C82.5431 225.263 82.5711 225.487 82.5804 225.664H82.6364C82.6551 225.505 82.6878 225.291 82.7344 225.02C82.7811 224.74 82.8371 224.441 82.9024 224.124C82.9678 223.807 83.0378 223.522 83.1124 223.27L84.0644 219.644H85.8144L83.6584 227.246H81.6984L80.8584 223.984Z" fill="#1A1A1A"/>
<path d="M499.575 227.386H497.461V221.604C497.461 221.445 497.461 221.249 497.461 221.016C497.471 220.783 497.48 220.54 497.489 220.288C497.499 220.036 497.508 219.812 497.517 219.616C497.471 219.672 497.368 219.775 497.209 219.924C497.06 220.064 496.92 220.19 496.789 220.302L495.641 221.226L494.619 219.952L497.839 217.39H499.575V227.386ZM507.587 227.386H505.473V221.604C505.473 221.445 505.473 221.249 505.473 221.016C505.482 220.783 505.492 220.54 505.501 220.288C505.51 220.036 505.52 219.812 505.529 219.616C505.482 219.672 505.38 219.775 505.221 219.924C505.072 220.064 504.932 220.19 504.801 220.302L503.653 221.226L502.631 219.952L505.851 217.39H507.587V227.386ZM512.603 217.25C513.387 217.25 513.98 217.525 514.381 218.076C514.792 218.617 514.997 219.383 514.997 220.372C514.997 221.361 514.806 222.136 514.423 222.696C514.04 223.247 513.434 223.522 512.603 223.522C512.09 223.522 511.656 223.396 511.301 223.144C510.956 222.892 510.694 222.533 510.517 222.066C510.34 221.59 510.251 221.025 510.251 220.372C510.251 219.383 510.438 218.617 510.811 218.076C511.184 217.525 511.782 217.25 512.603 217.25ZM512.617 218.678C512.393 218.678 512.23 218.818 512.127 219.098C512.024 219.378 511.973 219.807 511.973 220.386C511.973 220.955 512.024 221.385 512.127 221.674C512.23 221.963 512.393 222.108 512.617 222.108C512.841 222.108 513.004 221.963 513.107 221.674C513.219 221.385 513.275 220.955 513.275 220.386C513.275 219.807 513.219 219.378 513.107 219.098C513.004 218.818 512.841 218.678 512.617 218.678ZM519.701 217.39L514.157 227.386H512.519L518.063 217.39H519.701ZM519.603 221.24C520.126 221.24 520.564 221.366 520.919 221.618C521.274 221.861 521.54 222.215 521.717 222.682C521.904 223.139 521.997 223.699 521.997 224.362C521.997 225.351 521.806 226.126 521.423 226.686C521.04 227.237 520.434 227.512 519.603 227.512C519.09 227.512 518.656 227.386 518.301 227.134C517.956 226.882 517.694 226.523 517.517 226.056C517.34 225.58 517.251 225.015 517.251 224.362C517.251 223.373 517.438 222.607 517.811 222.066C518.184 221.515 518.782 221.24 519.603 221.24ZM519.617 222.668C519.393 222.668 519.23 222.808 519.127 223.088C519.024 223.368 518.973 223.797 518.973 224.376C518.973 224.945 519.024 225.375 519.127 225.664C519.23 225.953 519.393 226.098 519.617 226.098C519.841 226.098 520.004 225.958 520.107 225.678C520.219 225.389 520.275 224.955 520.275 224.376C520.275 223.797 520.219 223.368 520.107 223.088C520.004 222.808 519.841 222.668 519.617 222.668Z" fill="#EF4343"/>
<mask id="mask3_2084_118" style="mask-type:luminance" maskUnits="userSpaceOnUse" x="130" y="218" width="324" height="9">
<path d="M450.852 218.25H132.799C131.433 218.25 130.325 220.041 130.325 222.25C130.325 224.459 131.433 226.25 132.799 226.25H450.852C452.218 226.25 453.325 224.459 453.325 222.25C453.325 220.041 452.218 218.25 450.852 218.25Z" fill="white"/>
</mask>
<g mask="url(#mask3_2084_118)">
<path d="M450.852 218.25H132.799C131.433 218.25 130.325 220.041 130.325 222.25C130.325 224.459 131.433 226.25 132.799 226.25H450.852C452.218 226.25 453.325 224.459 453.325 222.25C453.325 220.041 452.218 218.25 450.852 218.25Z" fill="#F1F5F9"/>
<path d="M164.718 218.25H-157.985V226.25H164.718V218.25Z" fill="#0A57DB"/>
</g>
</g>
<defs>
<filter id="filter0_d_2084_118" x="0" y="0" width="598.149" height="344.25" filterUnits="userSpaceOnUse" color-interpolation-filters="sRGB">
<feFlood flood-opacity="0" result="BackgroundImageFix"/>
<feColorMatrix in="SourceAlpha" type="matrix" values="0 0 0 0 0 0 0 0 0 0 0 0 0 0 0 0 0 0 127 0" result="hardAlpha"/>
<feOffset dy="4"/>
<feGaussianBlur stdDeviation="2"/>
<feComposite in2="hardAlpha" operator="out"/>
<feColorMatrix type="matrix" values="0 0 0 0 0 0 0 0 0 0 0 0 0 0 0 0 0 0 0.15 0"/>
<feBlend mode="normal" in2="BackgroundImageFix" result="effect1_dropShadow_2084_118"/>
<feBlend mode="normal" in="SourceGraphic" in2="effect1_dropShadow_2084_118" result="shape"/>
</filter>
</defs>
</svg>
